<svg xmlns="http://www.w3.org/2000/svg" width="1080" height="540" viewBox="0 0 1080 540">
<rect width="100%" height="100%" fill="#ffffff"/>
<text x="540.0" y="28" text-anchor="middle" font-family="Arial, sans-serif" font-size="17" font-weight="700">Test 1B: Expanded High-Sensitivity Project Entry</text>
<line x1="88" y1="474.0" x2="870" y2="474.0" stroke="#dedede"/>
<text x="78" y="478.0" text-anchor="end" font-family="Arial, sans-serif" font-size="11" fill="#444">0</text>
<line x1="88" y1="368.5" x2="870" y2="368.5" stroke="#dedede"/>
<text x="78" y="372.5" text-anchor="end" font-family="Arial, sans-serif" font-size="11" fill="#444">7</text>
<line x1="88" y1="263.0" x2="870" y2="263.0" stroke="#dedede"/>
<text x="78" y="267.0" text-anchor="end" font-family="Arial, sans-serif" font-size="11" fill="#444">14</text>
<line x1="88" y1="157.5" x2="870" y2="157.5" stroke="#dedede"/>
<text x="78" y="161.5" text-anchor="end" font-family="Arial, sans-serif" font-size="11" fill="#444">22</text>
<line x1="88" y1="52.0" x2="870" y2="52.0" stroke="#dedede"/>
<text x="78" y="56.0" text-anchor="end" font-family="Arial, sans-serif" font-size="11" fill="#444">29</text>
<line x1="88.0" y1="52" x2="88.0" y2="474" stroke="#eeeeee"/>
<text x="88.0" y="512" text-anchor="middle" font-family="Arial, sans-serif" font-size="12" fill="#444">2019</text>
<line x1="201.1" y1="52" x2="201.1" y2="474" stroke="#eeeeee"/>
<text x="201.1" y="512" text-anchor="middle" font-family="Arial, sans-serif" font-size="12" fill="#444">2020</text>
<line x1="314.1" y1="52" x2="314.1" y2="474" stroke="#eeeeee"/>
<text x="314.1" y="512" text-anchor="middle" font-family="Arial, sans-serif" font-size="12" fill="#444">2021</text>
<line x1="427.2" y1="52" x2="427.2" y2="474" stroke="#eeeeee"/>
<text x="427.2" y="512" text-anchor="middle" font-family="Arial, sans-serif" font-size="12" fill="#444">2022</text>
<line x1="540.2" y1="52" x2="540.2" y2="474" stroke="#eeeeee"/>
<text x="540.2" y="512" text-anchor="middle" font-family="Arial, sans-serif" font-size="12" fill="#444">2023</text>
<line x1="653.3" y1="52" x2="653.3" y2="474" stroke="#eeeeee"/>
<text x="653.3" y="512" text-anchor="middle" font-family="Arial, sans-serif" font-size="12" fill="#444">2024</text>
<line x1="766.4" y1="52" x2="766.4" y2="474" stroke="#eeeeee"/>
<text x="766.4" y="512" text-anchor="middle" font-family="Arial, sans-serif" font-size="12" fill="#444">2025</text>
<line x1="709.8" y1="52" x2="709.8" y2="474" stroke="#111" stroke-width="2.2"/>
<text x="716.8" y="68" font-family="Arial, sans-serif" font-size="11" fill="#111">Jul 2024</text>
<polyline fill="none" stroke="#24536b" stroke-width="2.4" points="88.0,343.0 97.4,299.4 106.8,299.4 116.3,415.8 125.7,357.6 135.1,415.8 144.5,299.4 154.0,372.1 163.4,372.1 172.8,357.6 182.2,284.8 191.6,372.1 201.1,372.1 210.5,357.6 219.9,241.2 229.3,401.2 238.7,430.3 248.2,313.9 257.6,313.9 267.0,313.9 276.4,386.7 285.9,372.1 295.3,430.3 304.7,474.0 314.1,226.6 323.5,343.0 333.0,313.9 342.4,386.7 351.8,386.7 361.2,343.0 370.7,444.9 380.1,430.3 389.5,444.9 398.9,401.2 408.3,343.0 417.8,386.7 427.2,401.2 436.6,372.1 446.0,299.4 455.4,284.8 464.9,357.6 474.3,328.5 483.7,372.1 493.1,328.5 502.6,299.4 512.0,401.2 521.4,328.5 530.8,343.0 540.2,372.1 549.7,372.1 559.1,372.1 568.5,372.1 577.9,357.6 587.3,255.7 596.8,386.7 606.2,372.1 615.6,328.5 625.0,386.7 634.5,241.2 643.9,401.2 653.3,415.8 662.7,386.7 672.1,386.7 681.6,299.4 691.0,357.6 700.4,459.4 709.8,474.0 719.3,474.0 728.7,474.0 738.1,168.4 747.5,168.4 756.9,241.2 766.4,284.8 775.8,226.6 785.2,284.8 794.6,183.0 804.0,255.7 813.5,95.7 822.9,183.0 832.3,226.6 841.7,124.8 851.2,168.4 860.6,183.0 870.0,328.5"/>
<circle cx="88.0" cy="343.0" r="2.7" fill="#24536b"/>
<circle cx="97.4" cy="299.4" r="2.7" fill="#24536b"/>
<circle cx="106.8" cy="299.4" r="2.7" fill="#24536b"/>
<circle cx="116.3" cy="415.8" r="2.7" fill="#24536b"/>
<circle cx="125.7" cy="357.6" r="2.7" fill="#24536b"/>
<circle cx="135.1" cy="415.8" r="2.7" fill="#24536b"/>
<circle cx="144.5" cy="299.4" r="2.7" fill="#24536b"/>
<circle cx="154.0" cy="372.1" r="2.7" fill="#24536b"/>
<circle cx="163.4" cy="372.1" r="2.7" fill="#24536b"/>
<circle cx="172.8" cy="357.6" r="2.7" fill="#24536b"/>
<circle cx="182.2" cy="284.8" r="2.7" fill="#24536b"/>
<circle cx="191.6" cy="372.1" r="2.7" fill="#24536b"/>
<circle cx="201.1" cy="372.1" r="2.7" fill="#24536b"/>
<circle cx="210.5" cy="357.6" r="2.7" fill="#24536b"/>
<circle cx="219.9" cy="241.2" r="2.7" fill="#24536b"/>
<circle cx="229.3" cy="401.2" r="2.7" fill="#24536b"/>
<circle cx="238.7" cy="430.3" r="2.7" fill="#24536b"/>
<circle cx="248.2" cy="313.9" r="2.7" fill="#24536b"/>
<circle cx="257.6" cy="313.9" r="2.7" fill="#24536b"/>
<circle cx="267.0" cy="313.9" r="2.7" fill="#24536b"/>
<circle cx="276.4" cy="386.7" r="2.7" fill="#24536b"/>
<circle cx="285.9" cy="372.1" r="2.7" fill="#24536b"/>
<circle cx="295.3" cy="430.3" r="2.7" fill="#24536b"/>
<circle cx="304.7" cy="474.0" r="2.7" fill="#24536b"/>
<circle cx="314.1" cy="226.6" r="2.7" fill="#24536b"/>
<circle cx="323.5" cy="343.0" r="2.7" fill="#24536b"/>
<circle cx="333.0" cy="313.9" r="2.7" fill="#24536b"/>
<circle cx="342.4" cy="386.7" r="2.7" fill="#24536b"/>
<circle cx="351.8" cy="386.7" r="2.7" fill="#24536b"/>
<circle cx="361.2" cy="343.0" r="2.7" fill="#24536b"/>
<circle cx="370.7" cy="444.9" r="2.7" fill="#24536b"/>
<circle cx="380.1" cy="430.3" r="2.7" fill="#24536b"/>
<circle cx="389.5" cy="444.9" r="2.7" fill="#24536b"/>
<circle cx="398.9" cy="401.2" r="2.7" fill="#24536b"/>
<circle cx="408.3" cy="343.0" r="2.7" fill="#24536b"/>
<circle cx="417.8" cy="386.7" r="2.7" fill="#24536b"/>
<circle cx="427.2" cy="401.2" r="2.7" fill="#24536b"/>
<circle cx="436.6" cy="372.1" r="2.7" fill="#24536b"/>
<circle cx="446.0" cy="299.4" r="2.7" fill="#24536b"/>
<circle cx="455.4" cy="284.8" r="2.7" fill="#24536b"/>
<circle cx="464.9" cy="357.6" r="2.7" fill="#24536b"/>
<circle cx="474.3" cy="328.5" r="2.7" fill="#24536b"/>
<circle cx="483.7" cy="372.1" r="2.7" fill="#24536b"/>
<circle cx="493.1" cy="328.5" r="2.7" fill="#24536b"/>
<circle cx="502.6" cy="299.4" r="2.7" fill="#24536b"/>
<circle cx="512.0" cy="401.2" r="2.7" fill="#24536b"/>
<circle cx="521.4" cy="328.5" r="2.7" fill="#24536b"/>
<circle cx="530.8" cy="343.0" r="2.7" fill="#24536b"/>
<circle cx="540.2" cy="372.1" r="2.7" fill="#24536b"/>
<circle cx="549.7" cy="372.1" r="2.7" fill="#24536b"/>
<circle cx="559.1" cy="372.1" r="2.7" fill="#24536b"/>
<circle cx="568.5" cy="372.1" r="2.7" fill="#24536b"/>
<circle cx="577.9" cy="357.6" r="2.7" fill="#24536b"/>
<circle cx="587.3" cy="255.7" r="2.7" fill="#24536b"/>
<circle cx="596.8" cy="386.7" r="2.7" fill="#24536b"/>
<circle cx="606.2" cy="372.1" r="2.7" fill="#24536b"/>
<circle cx="615.6" cy="328.5" r="2.7" fill="#24536b"/>
<circle cx="625.0" cy="386.7" r="2.7" fill="#24536b"/>
<circle cx="634.5" cy="241.2" r="2.7" fill="#24536b"/>
<circle cx="643.9" cy="401.2" r="2.7" fill="#24536b"/>
<circle cx="653.3" cy="415.8" r="2.7" fill="#24536b"/>
<circle cx="662.7" cy="386.7" r="2.7" fill="#24536b"/>
<circle cx="672.1" cy="386.7" r="2.7" fill="#24536b"/>
<circle cx="681.6" cy="299.4" r="2.7" fill="#24536b"/>
<circle cx="691.0" cy="357.6" r="2.7" fill="#24536b"/>
<circle cx="700.4" cy="459.4" r="2.7" fill="#24536b"/>
<circle cx="709.8" cy="474.0" r="2.7" fill="#24536b"/>
<circle cx="719.3" cy="474.0" r="2.7" fill="#24536b"/>
<circle cx="728.7" cy="474.0" r="2.7" fill="#24536b"/>
<circle cx="738.1" cy="168.4" r="2.7" fill="#24536b"/>
<circle cx="747.5" cy="168.4" r="2.7" fill="#24536b"/>
<circle cx="756.9" cy="241.2" r="2.7" fill="#24536b"/>
<circle cx="766.4" cy="284.8" r="2.7" fill="#24536b"/>
<circle cx="775.8" cy="226.6" r="2.7" fill="#24536b"/>
<circle cx="785.2" cy="284.8" r="2.7" fill="#24536b"/>
<circle cx="794.6" cy="183.0" r="2.7" fill="#24536b"/>
<circle cx="804.0" cy="255.7" r="2.7" fill="#24536b"/>
<circle cx="813.5" cy="95.7" r="2.7" fill="#24536b"/>
<circle cx="822.9" cy="183.0" r="2.7" fill="#24536b"/>
<circle cx="832.3" cy="226.6" r="2.7" fill="#24536b"/>
<circle cx="841.7" cy="124.8" r="2.7" fill="#24536b"/>
<circle cx="851.2" cy="168.4" r="2.7" fill="#24536b"/>
<circle cx="860.6" cy="183.0" r="2.7" fill="#24536b"/>
<circle cx="870.0" cy="328.5" r="2.7" fill="#24536b"/>
<line x1="898" y1="60" x2="928" y2="60" stroke="#24536b" stroke-width="2.4"/>
<text x="936" y="64" font-family="Arial, sans-serif" font-size="12" fill="#333">Observed high</text>
<polyline fill="none" stroke="#24536b" stroke-width="2.4" stroke-dasharray="6 4" points="88.0,350.6 97.4,344.1 106.8,323.0 116.3,345.6 125.7,370.2 135.1,330.4 144.5,371.4 154.0,381.2 163.4,372.3 172.8,351.0 182.2,315.1 191.6,399.7 201.1,352.9 210.5,346.4 219.9,325.3 229.3,347.9 238.7,372.6 248.2,332.8 257.6,373.7 267.0,383.6 276.4,374.7 285.9,353.3 295.3,317.4 304.7,402.1 314.1,355.3 323.5,348.7 333.0,327.7 342.4,350.3 351.8,374.9 361.2,335.1 370.7,376.1 380.1,385.9 389.5,377.0 398.9,355.7 408.3,319.7 417.8,404.4 427.2,357.6 436.6,351.1 446.0,330.0 455.4,352.6 464.9,377.3 474.3,337.5 483.7,378.4 493.1,388.2 502.6,379.4 512.0,358.0 521.4,322.1 530.8,406.7 540.2,360.0 549.7,353.4 559.1,332.4 568.5,354.9 577.9,379.6 587.3,339.8 596.8,380.8 606.2,390.6 615.6,381.7 625.0,360.3 634.5,324.4 643.9,409.1 653.3,362.3 662.7,355.8 672.1,334.7 681.6,357.3 691.0,381.9 700.4,342.1 709.8,370.8 719.3,368.1 728.7,346.7 738.1,312.8 747.5,264.3 756.9,336.4 766.4,277.1 775.8,258.1 785.2,224.5 794.6,234.5 804.0,246.6 813.5,194.3 822.9,222.7 832.3,220.0 841.7,198.6 851.2,164.7 860.6,116.2 870.0,188.3"/>
<line x1="898" y1="82" x2="928" y2="82" stroke="#24536b" stroke-width="2.4" stroke-dasharray="6 4"/>
<text x="936" y="86" font-family="Arial, sans-serif" font-size="12" fill="#333">Fitted high</text>
<text x="20" y="263.0" transform="rotate(-90 20 263.0)" text-anchor="middle" font-family="Arial, sans-serif" font-size="12">Monthly expanded high-sensitivity starts</text>
<text x="88" y="532" font-family="Arial, sans-serif" font-size="11" fill="#333">Vertical line marks the July 2024 breakpoint. Fitted paths are segmented ITS fits with month-of-year fixed effects.</text>
</svg>
