<svg xmlns="http://www.w3.org/2000/svg" width="1080" height="540" viewBox="0 0 1080 540">
<rect width="100%" height="100%" fill="#ffffff"/>
<text x="540.0" y="28" text-anchor="middle" font-family="Arial, sans-serif" font-size="17" font-weight="700">Test 3A: Monthly Project Starts by Sensitivity Group Through Apr 2026</text>
<line x1="88" y1="474.0" x2="870" y2="474.0" stroke="#dedede"/>
<text x="78" y="478.0" text-anchor="end" font-family="Arial, sans-serif" font-size="11" fill="#444">0</text>
<line x1="88" y1="368.5" x2="870" y2="368.5" stroke="#dedede"/>
<text x="78" y="372.5" text-anchor="end" font-family="Arial, sans-serif" font-size="11" fill="#444">50</text>
<line x1="88" y1="263.0" x2="870" y2="263.0" stroke="#dedede"/>
<text x="78" y="267.0" text-anchor="end" font-family="Arial, sans-serif" font-size="11" fill="#444">101</text>
<line x1="88" y1="157.5" x2="870" y2="157.5" stroke="#dedede"/>
<text x="78" y="161.5" text-anchor="end" font-family="Arial, sans-serif" font-size="11" fill="#444">151</text>
<line x1="88" y1="52.0" x2="870" y2="52.0" stroke="#dedede"/>
<text x="78" y="56.0" text-anchor="end" font-family="Arial, sans-serif" font-size="11" fill="#444">202</text>
<line x1="88.0" y1="52" x2="88.0" y2="474" stroke="#eeeeee"/>
<text x="88.0" y="512" text-anchor="middle" font-family="Arial, sans-serif" font-size="12" fill="#444">2019</text>
<line x1="195.9" y1="52" x2="195.9" y2="474" stroke="#eeeeee"/>
<text x="195.9" y="512" text-anchor="middle" font-family="Arial, sans-serif" font-size="12" fill="#444">2020</text>
<line x1="303.7" y1="52" x2="303.7" y2="474" stroke="#eeeeee"/>
<text x="303.7" y="512" text-anchor="middle" font-family="Arial, sans-serif" font-size="12" fill="#444">2021</text>
<line x1="411.6" y1="52" x2="411.6" y2="474" stroke="#eeeeee"/>
<text x="411.6" y="512" text-anchor="middle" font-family="Arial, sans-serif" font-size="12" fill="#444">2022</text>
<line x1="519.4" y1="52" x2="519.4" y2="474" stroke="#eeeeee"/>
<text x="519.4" y="512" text-anchor="middle" font-family="Arial, sans-serif" font-size="12" fill="#444">2023</text>
<line x1="627.3" y1="52" x2="627.3" y2="474" stroke="#eeeeee"/>
<text x="627.3" y="512" text-anchor="middle" font-family="Arial, sans-serif" font-size="12" fill="#444">2024</text>
<line x1="735.2" y1="52" x2="735.2" y2="474" stroke="#eeeeee"/>
<text x="735.2" y="512" text-anchor="middle" font-family="Arial, sans-serif" font-size="12" fill="#444">2025</text>
<line x1="843.0" y1="52" x2="843.0" y2="474" stroke="#eeeeee"/>
<text x="843.0" y="512" text-anchor="middle" font-family="Arial, sans-serif" font-size="12" fill="#444">2026</text>
<line x1="681.2" y1="52" x2="681.2" y2="474" stroke="#111" stroke-width="2.2"/>
<text x="688.2" y="68" font-family="Arial, sans-serif" font-size="11" fill="#111">Jul 2024</text>
<polyline fill="none" stroke="#24536b" stroke-width="2.4" points="88.0,455.2 97.0,448.9 106.0,448.9 115.0,465.6 124.0,457.3 132.9,465.6 141.9,448.9 150.9,459.4 159.9,459.4 168.9,457.3 177.9,446.8 186.9,459.4 195.9,459.4 204.9,457.3 213.8,440.6 222.8,463.6 231.8,467.7 240.8,451.0 249.8,451.0 258.8,451.0 267.8,461.5 276.8,459.4 285.7,467.7 294.7,474.0 303.7,438.5 312.7,455.2 321.7,451.0 330.7,461.5 339.7,461.5 348.7,455.2 357.7,469.8 366.6,467.7 375.6,469.8 384.6,463.6 393.6,455.2 402.6,461.5 411.6,463.6 420.6,459.4 429.6,448.9 438.6,446.8 447.5,457.3 456.5,453.1 465.5,459.4 474.5,453.1 483.5,448.9 492.5,463.6 501.5,453.1 510.5,455.2 519.4,459.4 528.4,459.4 537.4,459.4 546.4,459.4 555.4,457.3 564.4,442.7 573.4,461.5 582.4,459.4 591.4,453.1 600.3,461.5 609.3,440.6 618.3,463.6 627.3,465.6 636.3,461.5 645.3,461.5 654.3,448.9 663.3,457.3 672.3,471.9 681.2,474.0 690.2,474.0 699.2,474.0 708.2,430.1 717.2,430.1 726.2,440.6 735.2,446.8 744.2,438.5 753.1,446.8 762.1,432.2 771.1,442.7 780.1,419.7 789.1,432.2 798.1,438.5 807.1,423.9 816.1,430.1 825.1,432.2 834.0,453.1 843.0,403.0 852.0,436.4 861.0,407.1 870.0,451.0"/>
<circle cx="88.0" cy="455.2" r="2.7" fill="#24536b"/>
<circle cx="97.0" cy="448.9" r="2.7" fill="#24536b"/>
<circle cx="106.0" cy="448.9" r="2.7" fill="#24536b"/>
<circle cx="115.0" cy="465.6" r="2.7" fill="#24536b"/>
<circle cx="124.0" cy="457.3" r="2.7" fill="#24536b"/>
<circle cx="132.9" cy="465.6" r="2.7" fill="#24536b"/>
<circle cx="141.9" cy="448.9" r="2.7" fill="#24536b"/>
<circle cx="150.9" cy="459.4" r="2.7" fill="#24536b"/>
<circle cx="159.9" cy="459.4" r="2.7" fill="#24536b"/>
<circle cx="168.9" cy="457.3" r="2.7" fill="#24536b"/>
<circle cx="177.9" cy="446.8" r="2.7" fill="#24536b"/>
<circle cx="186.9" cy="459.4" r="2.7" fill="#24536b"/>
<circle cx="195.9" cy="459.4" r="2.7" fill="#24536b"/>
<circle cx="204.9" cy="457.3" r="2.7" fill="#24536b"/>
<circle cx="213.8" cy="440.6" r="2.7" fill="#24536b"/>
<circle cx="222.8" cy="463.6" r="2.7" fill="#24536b"/>
<circle cx="231.8" cy="467.7" r="2.7" fill="#24536b"/>
<circle cx="240.8" cy="451.0" r="2.7" fill="#24536b"/>
<circle cx="249.8" cy="451.0" r="2.7" fill="#24536b"/>
<circle cx="258.8" cy="451.0" r="2.7" fill="#24536b"/>
<circle cx="267.8" cy="461.5" r="2.7" fill="#24536b"/>
<circle cx="276.8" cy="459.4" r="2.7" fill="#24536b"/>
<circle cx="285.7" cy="467.7" r="2.7" fill="#24536b"/>
<circle cx="294.7" cy="474.0" r="2.7" fill="#24536b"/>
<circle cx="303.7" cy="438.5" r="2.7" fill="#24536b"/>
<circle cx="312.7" cy="455.2" r="2.7" fill="#24536b"/>
<circle cx="321.7" cy="451.0" r="2.7" fill="#24536b"/>
<circle cx="330.7" cy="461.5" r="2.7" fill="#24536b"/>
<circle cx="339.7" cy="461.5" r="2.7" fill="#24536b"/>
<circle cx="348.7" cy="455.2" r="2.7" fill="#24536b"/>
<circle cx="357.7" cy="469.8" r="2.7" fill="#24536b"/>
<circle cx="366.6" cy="467.7" r="2.7" fill="#24536b"/>
<circle cx="375.6" cy="469.8" r="2.7" fill="#24536b"/>
<circle cx="384.6" cy="463.6" r="2.7" fill="#24536b"/>
<circle cx="393.6" cy="455.2" r="2.7" fill="#24536b"/>
<circle cx="402.6" cy="461.5" r="2.7" fill="#24536b"/>
<circle cx="411.6" cy="463.6" r="2.7" fill="#24536b"/>
<circle cx="420.6" cy="459.4" r="2.7" fill="#24536b"/>
<circle cx="429.6" cy="448.9" r="2.7" fill="#24536b"/>
<circle cx="438.6" cy="446.8" r="2.7" fill="#24536b"/>
<circle cx="447.5" cy="457.3" r="2.7" fill="#24536b"/>
<circle cx="456.5" cy="453.1" r="2.7" fill="#24536b"/>
<circle cx="465.5" cy="459.4" r="2.7" fill="#24536b"/>
<circle cx="474.5" cy="453.1" r="2.7" fill="#24536b"/>
<circle cx="483.5" cy="448.9" r="2.7" fill="#24536b"/>
<circle cx="492.5" cy="463.6" r="2.7" fill="#24536b"/>
<circle cx="501.5" cy="453.1" r="2.7" fill="#24536b"/>
<circle cx="510.5" cy="455.2" r="2.7" fill="#24536b"/>
<circle cx="519.4" cy="459.4" r="2.7" fill="#24536b"/>
<circle cx="528.4" cy="459.4" r="2.7" fill="#24536b"/>
<circle cx="537.4" cy="459.4" r="2.7" fill="#24536b"/>
<circle cx="546.4" cy="459.4" r="2.7" fill="#24536b"/>
<circle cx="555.4" cy="457.3" r="2.7" fill="#24536b"/>
<circle cx="564.4" cy="442.7" r="2.7" fill="#24536b"/>
<circle cx="573.4" cy="461.5" r="2.7" fill="#24536b"/>
<circle cx="582.4" cy="459.4" r="2.7" fill="#24536b"/>
<circle cx="591.4" cy="453.1" r="2.7" fill="#24536b"/>
<circle cx="600.3" cy="461.5" r="2.7" fill="#24536b"/>
<circle cx="609.3" cy="440.6" r="2.7" fill="#24536b"/>
<circle cx="618.3" cy="463.6" r="2.7" fill="#24536b"/>
<circle cx="627.3" cy="465.6" r="2.7" fill="#24536b"/>
<circle cx="636.3" cy="461.5" r="2.7" fill="#24536b"/>
<circle cx="645.3" cy="461.5" r="2.7" fill="#24536b"/>
<circle cx="654.3" cy="448.9" r="2.7" fill="#24536b"/>
<circle cx="663.3" cy="457.3" r="2.7" fill="#24536b"/>
<circle cx="672.3" cy="471.9" r="2.7" fill="#24536b"/>
<circle cx="681.2" cy="474.0" r="2.7" fill="#24536b"/>
<circle cx="690.2" cy="474.0" r="2.7" fill="#24536b"/>
<circle cx="699.2" cy="474.0" r="2.7" fill="#24536b"/>
<circle cx="708.2" cy="430.1" r="2.7" fill="#24536b"/>
<circle cx="717.2" cy="430.1" r="2.7" fill="#24536b"/>
<circle cx="726.2" cy="440.6" r="2.7" fill="#24536b"/>
<circle cx="735.2" cy="446.8" r="2.7" fill="#24536b"/>
<circle cx="744.2" cy="438.5" r="2.7" fill="#24536b"/>
<circle cx="753.1" cy="446.8" r="2.7" fill="#24536b"/>
<circle cx="762.1" cy="432.2" r="2.7" fill="#24536b"/>
<circle cx="771.1" cy="442.7" r="2.7" fill="#24536b"/>
<circle cx="780.1" cy="419.7" r="2.7" fill="#24536b"/>
<circle cx="789.1" cy="432.2" r="2.7" fill="#24536b"/>
<circle cx="798.1" cy="438.5" r="2.7" fill="#24536b"/>
<circle cx="807.1" cy="423.9" r="2.7" fill="#24536b"/>
<circle cx="816.1" cy="430.1" r="2.7" fill="#24536b"/>
<circle cx="825.1" cy="432.2" r="2.7" fill="#24536b"/>
<circle cx="834.0" cy="453.1" r="2.7" fill="#24536b"/>
<circle cx="843.0" cy="403.0" r="2.7" fill="#24536b"/>
<circle cx="852.0" cy="436.4" r="2.7" fill="#24536b"/>
<circle cx="861.0" cy="407.1" r="2.7" fill="#24536b"/>
<circle cx="870.0" cy="451.0" r="2.7" fill="#24536b"/>
<line x1="898" y1="60" x2="928" y2="60" stroke="#24536b" stroke-width="2.4"/>
<text x="936" y="64" font-family="Arial, sans-serif" font-size="12" fill="#333">High</text>
<polyline fill="none" stroke="#b24a38" stroke-width="2.4" points="88.0,409.2 97.0,415.5 106.0,390.4 115.0,409.2 124.0,365.3 132.9,413.4 141.9,394.6 150.9,432.2 159.9,423.9 168.9,400.9 177.9,392.5 186.9,428.0 195.9,377.9 204.9,392.5 213.8,317.3 222.8,377.9 231.8,405.0 240.8,352.8 249.8,386.2 258.8,394.6 267.8,390.4 276.8,428.0 285.7,396.7 294.7,463.6 303.7,327.7 312.7,375.8 321.7,334.0 330.7,403.0 339.7,403.0 348.7,400.9 357.7,425.9 366.6,438.5 375.6,409.2 384.6,388.3 393.6,405.0 402.6,413.4 411.6,409.2 420.6,359.1 429.6,329.8 438.6,377.9 447.5,352.8 456.5,398.8 465.5,377.9 474.5,342.4 483.5,302.7 492.5,411.3 501.5,340.3 510.5,342.4 519.4,367.4 528.4,386.2 537.4,336.1 546.4,367.4 555.4,359.1 564.4,346.5 573.4,357.0 582.4,367.4 591.4,375.8 600.3,338.2 609.3,340.3 618.3,407.1 627.3,325.6 636.3,380.0 645.3,313.1 654.3,348.6 663.3,421.8 672.3,455.2 681.2,467.7 690.2,474.0 699.2,471.9 708.2,83.3 717.2,191.9 726.2,285.9 735.2,292.2 744.2,279.7 753.1,271.3 762.1,137.6 771.1,242.1 780.1,194.0 789.1,116.7 798.1,265.0 807.1,179.4 816.1,244.2 825.1,162.7 834.0,281.8 843.0,242.1 852.0,263.0 861.0,246.2 870.0,365.3"/>
<circle cx="88.0" cy="409.2" r="2.7" fill="#b24a38"/>
<circle cx="97.0" cy="415.5" r="2.7" fill="#b24a38"/>
<circle cx="106.0" cy="390.4" r="2.7" fill="#b24a38"/>
<circle cx="115.0" cy="409.2" r="2.7" fill="#b24a38"/>
<circle cx="124.0" cy="365.3" r="2.7" fill="#b24a38"/>
<circle cx="132.9" cy="413.4" r="2.7" fill="#b24a38"/>
<circle cx="141.9" cy="394.6" r="2.7" fill="#b24a38"/>
<circle cx="150.9" cy="432.2" r="2.7" fill="#b24a38"/>
<circle cx="159.9" cy="423.9" r="2.7" fill="#b24a38"/>
<circle cx="168.9" cy="400.9" r="2.7" fill="#b24a38"/>
<circle cx="177.9" cy="392.5" r="2.7" fill="#b24a38"/>
<circle cx="186.9" cy="428.0" r="2.7" fill="#b24a38"/>
<circle cx="195.9" cy="377.9" r="2.7" fill="#b24a38"/>
<circle cx="204.9" cy="392.5" r="2.7" fill="#b24a38"/>
<circle cx="213.8" cy="317.3" r="2.7" fill="#b24a38"/>
<circle cx="222.8" cy="377.9" r="2.7" fill="#b24a38"/>
<circle cx="231.8" cy="405.0" r="2.7" fill="#b24a38"/>
<circle cx="240.8" cy="352.8" r="2.7" fill="#b24a38"/>
<circle cx="249.8" cy="386.2" r="2.7" fill="#b24a38"/>
<circle cx="258.8" cy="394.6" r="2.7" fill="#b24a38"/>
<circle cx="267.8" cy="390.4" r="2.7" fill="#b24a38"/>
<circle cx="276.8" cy="428.0" r="2.7" fill="#b24a38"/>
<circle cx="285.7" cy="396.7" r="2.7" fill="#b24a38"/>
<circle cx="294.7" cy="463.6" r="2.7" fill="#b24a38"/>
<circle cx="303.7" cy="327.7" r="2.7" fill="#b24a38"/>
<circle cx="312.7" cy="375.8" r="2.7" fill="#b24a38"/>
<circle cx="321.7" cy="334.0" r="2.7" fill="#b24a38"/>
<circle cx="330.7" cy="403.0" r="2.7" fill="#b24a38"/>
<circle cx="339.7" cy="403.0" r="2.7" fill="#b24a38"/>
<circle cx="348.7" cy="400.9" r="2.7" fill="#b24a38"/>
<circle cx="357.7" cy="425.9" r="2.7" fill="#b24a38"/>
<circle cx="366.6" cy="438.5" r="2.7" fill="#b24a38"/>
<circle cx="375.6" cy="409.2" r="2.7" fill="#b24a38"/>
<circle cx="384.6" cy="388.3" r="2.7" fill="#b24a38"/>
<circle cx="393.6" cy="405.0" r="2.7" fill="#b24a38"/>
<circle cx="402.6" cy="413.4" r="2.7" fill="#b24a38"/>
<circle cx="411.6" cy="409.2" r="2.7" fill="#b24a38"/>
<circle cx="420.6" cy="359.1" r="2.7" fill="#b24a38"/>
<circle cx="429.6" cy="329.8" r="2.7" fill="#b24a38"/>
<circle cx="438.6" cy="377.9" r="2.7" fill="#b24a38"/>
<circle cx="447.5" cy="352.8" r="2.7" fill="#b24a38"/>
<circle cx="456.5" cy="398.8" r="2.7" fill="#b24a38"/>
<circle cx="465.5" cy="377.9" r="2.7" fill="#b24a38"/>
<circle cx="474.5" cy="342.4" r="2.7" fill="#b24a38"/>
<circle cx="483.5" cy="302.7" r="2.7" fill="#b24a38"/>
<circle cx="492.5" cy="411.3" r="2.7" fill="#b24a38"/>
<circle cx="501.5" cy="340.3" r="2.7" fill="#b24a38"/>
<circle cx="510.5" cy="342.4" r="2.7" fill="#b24a38"/>
<circle cx="519.4" cy="367.4" r="2.7" fill="#b24a38"/>
<circle cx="528.4" cy="386.2" r="2.7" fill="#b24a38"/>
<circle cx="537.4" cy="336.1" r="2.7" fill="#b24a38"/>
<circle cx="546.4" cy="367.4" r="2.7" fill="#b24a38"/>
<circle cx="555.4" cy="359.1" r="2.7" fill="#b24a38"/>
<circle cx="564.4" cy="346.5" r="2.7" fill="#b24a38"/>
<circle cx="573.4" cy="357.0" r="2.7" fill="#b24a38"/>
<circle cx="582.4" cy="367.4" r="2.7" fill="#b24a38"/>
<circle cx="591.4" cy="375.8" r="2.7" fill="#b24a38"/>
<circle cx="600.3" cy="338.2" r="2.7" fill="#b24a38"/>
<circle cx="609.3" cy="340.3" r="2.7" fill="#b24a38"/>
<circle cx="618.3" cy="407.1" r="2.7" fill="#b24a38"/>
<circle cx="627.3" cy="325.6" r="2.7" fill="#b24a38"/>
<circle cx="636.3" cy="380.0" r="2.7" fill="#b24a38"/>
<circle cx="645.3" cy="313.1" r="2.7" fill="#b24a38"/>
<circle cx="654.3" cy="348.6" r="2.7" fill="#b24a38"/>
<circle cx="663.3" cy="421.8" r="2.7" fill="#b24a38"/>
<circle cx="672.3" cy="455.2" r="2.7" fill="#b24a38"/>
<circle cx="681.2" cy="467.7" r="2.7" fill="#b24a38"/>
<circle cx="690.2" cy="474.0" r="2.7" fill="#b24a38"/>
<circle cx="699.2" cy="471.9" r="2.7" fill="#b24a38"/>
<circle cx="708.2" cy="83.3" r="2.7" fill="#b24a38"/>
<circle cx="717.2" cy="191.9" r="2.7" fill="#b24a38"/>
<circle cx="726.2" cy="285.9" r="2.7" fill="#b24a38"/>
<circle cx="735.2" cy="292.2" r="2.7" fill="#b24a38"/>
<circle cx="744.2" cy="279.7" r="2.7" fill="#b24a38"/>
<circle cx="753.1" cy="271.3" r="2.7" fill="#b24a38"/>
<circle cx="762.1" cy="137.6" r="2.7" fill="#b24a38"/>
<circle cx="771.1" cy="242.1" r="2.7" fill="#b24a38"/>
<circle cx="780.1" cy="194.0" r="2.7" fill="#b24a38"/>
<circle cx="789.1" cy="116.7" r="2.7" fill="#b24a38"/>
<circle cx="798.1" cy="265.0" r="2.7" fill="#b24a38"/>
<circle cx="807.1" cy="179.4" r="2.7" fill="#b24a38"/>
<circle cx="816.1" cy="244.2" r="2.7" fill="#b24a38"/>
<circle cx="825.1" cy="162.7" r="2.7" fill="#b24a38"/>
<circle cx="834.0" cy="281.8" r="2.7" fill="#b24a38"/>
<circle cx="843.0" cy="242.1" r="2.7" fill="#b24a38"/>
<circle cx="852.0" cy="263.0" r="2.7" fill="#b24a38"/>
<circle cx="861.0" cy="246.2" r="2.7" fill="#b24a38"/>
<circle cx="870.0" cy="365.3" r="2.7" fill="#b24a38"/>
<line x1="898" y1="82" x2="928" y2="82" stroke="#b24a38" stroke-width="2.4"/>
<text x="936" y="86" font-family="Arial, sans-serif" font-size="12" fill="#333">Lower</text>
<text x="20" y="263.0" transform="rotate(-90 20 263.0)" text-anchor="middle" font-family="Arial, sans-serif" font-size="12">Monthly starts</text>
<text x="88" y="532" font-family="Arial, sans-serif" font-size="11" fill="#333">Vertical line marks the July 2024 breakpoint. Fitted paths are segmented ITS fits with month-of-year fixed effects.</text>
</svg>
