<svg xmlns="http://www.w3.org/2000/svg" width="1180" height="440" viewBox="0 0 1180 440">
<rect width="100%" height="100%" fill="#ffffff"/>
<text x="590.0" y="25" text-anchor="middle" font-family="Arial, sans-serif" font-size="16" font-weight="700">Application-level Poisson: observed and fitted rates</text>
<text x="232.7" y="38" text-anchor="middle" font-family="Arial, sans-serif" font-size="12" font-weight="700">Curated 52</text>
<line x1="72.0" y1="380.0" x2="393.3" y2="380.0" stroke="#e5e5e5"/>
<text x="65.0" y="384.0" text-anchor="end" font-family="Arial, sans-serif" font-size="9" fill="#444">0.0%</text>
<line x1="72.0" y1="214.0" x2="393.3" y2="214.0" stroke="#e5e5e5"/>
<text x="65.0" y="218.0" text-anchor="end" font-family="Arial, sans-serif" font-size="9" fill="#444">18.7%</text>
<line x1="72.0" y1="48.0" x2="393.3" y2="48.0" stroke="#e5e5e5"/>
<text x="65.0" y="52.0" text-anchor="end" font-family="Arial, sans-serif" font-size="9" fill="#444">37.3%</text>
<line x1="85.3" y1="48" x2="85.3" y2="380" stroke="#f0f0f0"/>
<text x="85.3" y="399" text-anchor="middle" font-family="Arial, sans-serif" font-size="9" fill="#444">2013</text>
<line x1="108.0" y1="48" x2="108.0" y2="380" stroke="#f0f0f0"/>
<text x="108.0" y="399" text-anchor="middle" font-family="Arial, sans-serif" font-size="9" fill="#444">2014</text>
<line x1="130.6" y1="48" x2="130.6" y2="380" stroke="#f0f0f0"/>
<text x="130.6" y="399" text-anchor="middle" font-family="Arial, sans-serif" font-size="9" fill="#444">2015</text>
<line x1="153.3" y1="48" x2="153.3" y2="380" stroke="#f0f0f0"/>
<text x="153.3" y="399" text-anchor="middle" font-family="Arial, sans-serif" font-size="9" fill="#444">2016</text>
<line x1="176.0" y1="48" x2="176.0" y2="380" stroke="#f0f0f0"/>
<text x="176.0" y="399" text-anchor="middle" font-family="Arial, sans-serif" font-size="9" fill="#444">2017</text>
<line x1="198.7" y1="48" x2="198.7" y2="380" stroke="#f0f0f0"/>
<text x="198.7" y="399" text-anchor="middle" font-family="Arial, sans-serif" font-size="9" fill="#444">2018</text>
<line x1="221.4" y1="48" x2="221.4" y2="380" stroke="#f0f0f0"/>
<text x="221.4" y="399" text-anchor="middle" font-family="Arial, sans-serif" font-size="9" fill="#444">2019</text>
<line x1="244.0" y1="48" x2="244.0" y2="380" stroke="#f0f0f0"/>
<text x="244.0" y="399" text-anchor="middle" font-family="Arial, sans-serif" font-size="9" fill="#444">2020</text>
<line x1="266.8" y1="48" x2="266.8" y2="380" stroke="#f0f0f0"/>
<text x="266.8" y="399" text-anchor="middle" font-family="Arial, sans-serif" font-size="9" fill="#444">2021</text>
<line x1="289.4" y1="48" x2="289.4" y2="380" stroke="#f0f0f0"/>
<text x="289.4" y="399" text-anchor="middle" font-family="Arial, sans-serif" font-size="9" fill="#444">2022</text>
<line x1="312.1" y1="48" x2="312.1" y2="380" stroke="#f0f0f0"/>
<text x="312.1" y="399" text-anchor="middle" font-family="Arial, sans-serif" font-size="9" fill="#444">2023</text>
<line x1="334.8" y1="48" x2="334.8" y2="380" stroke="#f0f0f0"/>
<text x="334.8" y="399" text-anchor="middle" font-family="Arial, sans-serif" font-size="9" fill="#444">2024</text>
<line x1="357.5" y1="48" x2="357.5" y2="380" stroke="#f0f0f0"/>
<text x="357.5" y="399" text-anchor="middle" font-family="Arial, sans-serif" font-size="9" fill="#444">2025</text>
<line x1="380.2" y1="48" x2="380.2" y2="380" stroke="#f0f0f0"/>
<text x="380.2" y="399" text-anchor="middle" font-family="Arial, sans-serif" font-size="9" fill="#444">2026</text>
<line x1="346.1" y1="48" x2="346.1" y2="380" stroke="#222" stroke-width="1.2"/>
<text x="350.1" y="60" font-family="Arial, sans-serif" font-size="9" fill="#222">Jul 2024</text>
<path d="M 72.0 347.6 L 73.9 357.6 L 75.8 319.1 L 77.7 336.0 L 79.6 364.0 L 81.5 341.6 L 83.4 359.1 L 85.3 380.0 L 87.2 357.2 L 89.0 327.7 L 90.9 341.7 L 94.7 352.3 L 96.5 360.8 L 100.4 342.3 L 102.2 366.3 L 106.0 362.1 L 108.0 380.0 L 111.6 335.2 L 113.5 347.2 L 115.4 348.5 L 117.3 356.2 L 119.2 363.5 L 121.1 335.3 L 123.1 347.7 L 124.9 368.2 L 126.8 351.8 L 128.7 364.7 L 130.6 380.0 L 132.6 363.2 L 134.3 341.6 L 136.2 351.9 L 138.1 353.0 L 140.0 359.6 L 141.9 365.9 L 143.8 341.7 L 145.7 352.3 L 147.6 369.9 L 149.5 355.8 L 151.4 366.9 L 153.3 380.0 L 155.2 365.6 L 157.0 347.1 L 158.9 355.9 L 160.8 356.8 L 162.7 362.5 L 164.6 367.9 L 166.5 347.1 L 168.4 356.3 L 170.3 371.4 L 172.2 359.3 L 174.1 368.8 L 176.0 380.0 L 178.0 367.7 L 179.7 351.8 L 181.6 359.4 L 183.5 360.2 L 185.4 365.0 L 187.3 369.6 L 189.2 351.8 L 191.1 359.7 L 193.0 372.6 L 194.9 362.2 L 200.6 369.4 L 202.4 355.8 L 204.3 362.3 L 206.1 363.0 L 208.1 367.2 L 209.9 371.1 L 211.9 355.9 L 213.8 362.6 L 215.6 373.6 L 217.6 364.8 L 219.4 371.7 L 221.4 380.0 L 223.3 371.0 L 225.0 359.3 L 227.0 364.8 L 228.8 365.4 L 230.7 369.0 L 232.6 372.4 L 234.5 359.3 L 236.5 365.1 L 238.3 374.6 L 240.2 367.0 L 242.1 372.9 L 244.0 380.0 L 246.0 372.3 L 247.8 362.3 L 249.7 367.0 L 251.5 367.5 L 253.5 370.6 L 255.3 373.5 L 257.3 362.3 L 259.2 367.2 L 261.0 375.3 L 263.0 368.8 L 264.8 373.9 L 266.8 380.0 L 268.7 373.4 L 270.4 364.8 L 272.4 368.9 L 274.2 369.3 L 276.1 371.9 L 278.0 374.4 L 279.9 364.8 L 281.9 369.0 L 283.7 376.0 L 285.6 370.4 L 287.5 374.8 L 289.4 380.0 L 291.4 374.3 L 293.1 367.0 L 295.0 370.5 L 296.9 370.8 L 298.8 373.1 L 300.7 375.2 L 302.6 367.0 L 304.5 370.6 L 306.4 376.6 L 308.3 371.8 L 310.2 375.5 L 312.1 380.0 L 314.0 375.1 L 315.8 368.8 L 317.7 371.8 L 319.6 372.1 L 321.5 374.1 L 323.3 375.9 L 325.3 368.9 L 327.2 371.9 L 329.1 377.1 L 331.0 373.0 L 332.8 376.2 L 334.8 380.0 L 336.7 375.8 L 338.5 370.4 L 340.4 373.0 L 342.3 373.3 L 344.2 374.9 L 346.1 376.5 L 349.9 379.8 L 351.8 379.9 L 353.7 379.7 L 355.6 379.8 L 357.5 380.0 L 359.4 379.8 L 361.2 379.4 L 363.1 379.5 L 365.0 379.4 L 366.9 379.5 L 368.7 379.6 L 370.7 378.8 L 372.6 379.0 L 374.5 379.6 L 376.4 378.9 L 378.2 379.3 L 380.2 380.0 L 382.1 379.0 L 383.8 377.4 L 385.8 377.8 L 391.4 378.4 L 393.3 374.9" fill="none" stroke="#1f6b75" stroke-width="2.1"/>
<circle cx="72.0" cy="380.0" r="2.2" fill="#545454"/>
<circle cx="73.9" cy="380.0" r="2.2" fill="#545454"/>
<circle cx="75.8" cy="380.0" r="2.2" fill="#545454"/>
<circle cx="77.7" cy="380.0" r="2.2" fill="#545454"/>
<circle cx="79.6" cy="380.0" r="2.2" fill="#545454"/>
<circle cx="81.5" cy="380.0" r="2.2" fill="#545454"/>
<circle cx="83.4" cy="380.0" r="2.2" fill="#545454"/>
<circle cx="85.3" cy="380.0" r="2.2" fill="#545454"/>
<circle cx="87.2" cy="380.0" r="2.2" fill="#545454"/>
<circle cx="89.0" cy="380.0" r="2.2" fill="#545454"/>
<circle cx="90.9" cy="380.0" r="2.2" fill="#545454"/>
<circle cx="94.7" cy="380.0" r="2.2" fill="#545454"/>
<circle cx="96.5" cy="380.0" r="2.2" fill="#545454"/>
<circle cx="100.4" cy="380.0" r="2.2" fill="#545454"/>
<circle cx="102.2" cy="380.0" r="2.2" fill="#545454"/>
<circle cx="106.0" cy="380.0" r="2.2" fill="#545454"/>
<circle cx="108.0" cy="380.0" r="2.2" fill="#545454"/>
<circle cx="111.6" cy="380.0" r="2.2" fill="#545454"/>
<circle cx="113.5" cy="380.0" r="2.2" fill="#545454"/>
<circle cx="115.4" cy="380.0" r="2.2" fill="#545454"/>
<circle cx="117.3" cy="380.0" r="2.2" fill="#545454"/>
<circle cx="119.2" cy="380.0" r="2.2" fill="#545454"/>
<circle cx="121.1" cy="380.0" r="2.2" fill="#545454"/>
<circle cx="123.1" cy="380.0" r="2.2" fill="#545454"/>
<circle cx="124.9" cy="380.0" r="2.2" fill="#545454"/>
<circle cx="126.8" cy="380.0" r="2.2" fill="#545454"/>
<circle cx="128.7" cy="380.0" r="2.2" fill="#545454"/>
<circle cx="130.6" cy="380.0" r="2.2" fill="#545454"/>
<circle cx="132.6" cy="380.0" r="2.2" fill="#545454"/>
<circle cx="134.3" cy="83.6" r="2.2" fill="#545454"/>
<circle cx="136.2" cy="324.4" r="2.2" fill="#545454"/>
<circle cx="138.1" cy="380.0" r="2.2" fill="#545454"/>
<circle cx="140.0" cy="380.0" r="2.2" fill="#545454"/>
<circle cx="141.9" cy="380.0" r="2.2" fill="#545454"/>
<circle cx="143.8" cy="380.0" r="2.2" fill="#545454"/>
<circle cx="145.7" cy="380.0" r="2.2" fill="#545454"/>
<circle cx="147.6" cy="380.0" r="2.2" fill="#545454"/>
<circle cx="149.5" cy="380.0" r="2.2" fill="#545454"/>
<circle cx="151.4" cy="380.0" r="2.2" fill="#545454"/>
<circle cx="153.3" cy="380.0" r="2.2" fill="#545454"/>
<circle cx="155.2" cy="380.0" r="2.2" fill="#545454"/>
<circle cx="157.0" cy="320.7" r="2.2" fill="#545454"/>
<circle cx="158.9" cy="339.6" r="2.2" fill="#545454"/>
<circle cx="160.8" cy="333.2" r="2.2" fill="#545454"/>
<circle cx="162.7" cy="380.0" r="2.2" fill="#545454"/>
<circle cx="164.6" cy="380.0" r="2.2" fill="#545454"/>
<circle cx="166.5" cy="380.0" r="2.2" fill="#545454"/>
<circle cx="168.4" cy="380.0" r="2.2" fill="#545454"/>
<circle cx="170.3" cy="316.5" r="2.2" fill="#545454"/>
<circle cx="172.2" cy="337.7" r="2.2" fill="#545454"/>
<circle cx="174.1" cy="299.2" r="2.2" fill="#545454"/>
<circle cx="176.0" cy="380.0" r="2.2" fill="#545454"/>
<circle cx="178.0" cy="380.0" r="2.2" fill="#545454"/>
<circle cx="179.7" cy="327.7" r="2.2" fill="#545454"/>
<circle cx="181.6" cy="380.0" r="2.2" fill="#545454"/>
<circle cx="183.5" cy="380.0" r="2.2" fill="#545454"/>
<circle cx="185.4" cy="380.0" r="2.2" fill="#545454"/>
<circle cx="187.3" cy="337.7" r="2.2" fill="#545454"/>
<circle cx="189.2" cy="268.8" r="2.2" fill="#545454"/>
<circle cx="191.1" cy="380.0" r="2.2" fill="#545454"/>
<circle cx="193.0" cy="157.7" r="2.2" fill="#545454"/>
<circle cx="194.9" cy="380.0" r="2.2" fill="#545454"/>
<circle cx="200.6" cy="380.0" r="2.2" fill="#545454"/>
<circle cx="202.4" cy="380.0" r="2.2" fill="#545454"/>
<circle cx="204.3" cy="333.2" r="2.2" fill="#545454"/>
<circle cx="206.1" cy="380.0" r="2.2" fill="#545454"/>
<circle cx="208.1" cy="380.0" r="2.2" fill="#545454"/>
<circle cx="209.9" cy="380.0" r="2.2" fill="#545454"/>
<circle cx="211.9" cy="344.4" r="2.2" fill="#545454"/>
<circle cx="213.8" cy="359.3" r="2.2" fill="#545454"/>
<circle cx="215.6" cy="380.0" r="2.2" fill="#545454"/>
<circle cx="217.6" cy="380.0" r="2.2" fill="#545454"/>
<circle cx="219.4" cy="380.0" r="2.2" fill="#545454"/>
<circle cx="221.4" cy="380.0" r="2.2" fill="#545454"/>
<circle cx="223.3" cy="380.0" r="2.2" fill="#545454"/>
<circle cx="225.0" cy="362.9" r="2.2" fill="#545454"/>
<circle cx="227.0" cy="354.6" r="2.2" fill="#545454"/>
<circle cx="228.8" cy="350.4" r="2.2" fill="#545454"/>
<circle cx="230.7" cy="380.0" r="2.2" fill="#545454"/>
<circle cx="232.6" cy="362.2" r="2.2" fill="#545454"/>
<circle cx="234.5" cy="380.0" r="2.2" fill="#545454"/>
<circle cx="236.5" cy="322.6" r="2.2" fill="#545454"/>
<circle cx="238.3" cy="380.0" r="2.2" fill="#545454"/>
<circle cx="240.2" cy="345.8" r="2.2" fill="#545454"/>
<circle cx="242.1" cy="380.0" r="2.2" fill="#545454"/>
<circle cx="244.0" cy="380.0" r="2.2" fill="#545454"/>
<circle cx="246.0" cy="361.1" r="2.2" fill="#545454"/>
<circle cx="247.8" cy="360.5" r="2.2" fill="#545454"/>
<circle cx="249.7" cy="345.1" r="2.2" fill="#545454"/>
<circle cx="251.5" cy="355.3" r="2.2" fill="#545454"/>
<circle cx="253.5" cy="367.1" r="2.2" fill="#545454"/>
<circle cx="255.3" cy="380.0" r="2.2" fill="#545454"/>
<circle cx="257.3" cy="361.9" r="2.2" fill="#545454"/>
<circle cx="259.2" cy="380.0" r="2.2" fill="#545454"/>
<circle cx="261.0" cy="380.0" r="2.2" fill="#545454"/>
<circle cx="263.0" cy="335.5" r="2.2" fill="#545454"/>
<circle cx="264.8" cy="380.0" r="2.2" fill="#545454"/>
<circle cx="266.8" cy="380.0" r="2.2" fill="#545454"/>
<circle cx="268.7" cy="364.1" r="2.2" fill="#545454"/>
<circle cx="270.4" cy="357.2" r="2.2" fill="#545454"/>
<circle cx="272.4" cy="380.0" r="2.2" fill="#545454"/>
<circle cx="274.2" cy="357.8" r="2.2" fill="#545454"/>
<circle cx="276.1" cy="339.6" r="2.2" fill="#545454"/>
<circle cx="278.0" cy="380.0" r="2.2" fill="#545454"/>
<circle cx="279.9" cy="380.0" r="2.2" fill="#545454"/>
<circle cx="281.9" cy="380.0" r="2.2" fill="#545454"/>
<circle cx="283.7" cy="380.0" r="2.2" fill="#545454"/>
<circle cx="285.6" cy="380.0" r="2.2" fill="#545454"/>
<circle cx="287.5" cy="380.0" r="2.2" fill="#545454"/>
<circle cx="289.4" cy="380.0" r="2.2" fill="#545454"/>
<circle cx="291.4" cy="365.7" r="2.2" fill="#545454"/>
<circle cx="293.1" cy="369.0" r="2.2" fill="#545454"/>
<circle cx="295.0" cy="380.0" r="2.2" fill="#545454"/>
<circle cx="296.9" cy="380.0" r="2.2" fill="#545454"/>
<circle cx="298.8" cy="380.0" r="2.2" fill="#545454"/>
<circle cx="300.7" cy="363.2" r="2.2" fill="#545454"/>
<circle cx="302.6" cy="355.6" r="2.2" fill="#545454"/>
<circle cx="304.5" cy="361.1" r="2.2" fill="#545454"/>
<circle cx="306.4" cy="380.0" r="2.2" fill="#545454"/>
<circle cx="308.3" cy="380.0" r="2.2" fill="#545454"/>
<circle cx="310.2" cy="380.0" r="2.2" fill="#545454"/>
<circle cx="312.1" cy="380.0" r="2.2" fill="#545454"/>
<circle cx="314.0" cy="380.0" r="2.2" fill="#545454"/>
<circle cx="315.8" cy="380.0" r="2.2" fill="#545454"/>
<circle cx="317.7" cy="380.0" r="2.2" fill="#545454"/>
<circle cx="319.6" cy="380.0" r="2.2" fill="#545454"/>
<circle cx="321.5" cy="368.3" r="2.2" fill="#545454"/>
<circle cx="323.3" cy="380.0" r="2.2" fill="#545454"/>
<circle cx="325.3" cy="380.0" r="2.2" fill="#545454"/>
<circle cx="327.2" cy="364.4" r="2.2" fill="#545454"/>
<circle cx="329.1" cy="380.0" r="2.2" fill="#545454"/>
<circle cx="331.0" cy="380.0" r="2.2" fill="#545454"/>
<circle cx="332.8" cy="380.0" r="2.2" fill="#545454"/>
<circle cx="334.8" cy="380.0" r="2.2" fill="#545454"/>
<circle cx="336.7" cy="380.0" r="2.2" fill="#545454"/>
<circle cx="338.5" cy="369.3" r="2.2" fill="#545454"/>
<circle cx="340.4" cy="380.0" r="2.2" fill="#545454"/>
<circle cx="342.3" cy="380.0" r="2.2" fill="#545454"/>
<circle cx="344.2" cy="380.0" r="2.2" fill="#545454"/>
<circle cx="346.1" cy="380.0" r="2.2" fill="#545454"/>
<circle cx="349.9" cy="380.0" r="2.2" fill="#545454"/>
<circle cx="351.8" cy="380.0" r="2.2" fill="#545454"/>
<circle cx="353.7" cy="380.0" r="2.2" fill="#545454"/>
<circle cx="355.6" cy="380.0" r="2.2" fill="#545454"/>
<circle cx="357.5" cy="380.0" r="2.2" fill="#545454"/>
<circle cx="359.4" cy="380.0" r="2.2" fill="#545454"/>
<circle cx="361.2" cy="380.0" r="2.2" fill="#545454"/>
<circle cx="363.1" cy="380.0" r="2.2" fill="#545454"/>
<circle cx="365.0" cy="380.0" r="2.2" fill="#545454"/>
<circle cx="366.9" cy="380.0" r="2.2" fill="#545454"/>
<circle cx="368.7" cy="380.0" r="2.2" fill="#545454"/>
<circle cx="370.7" cy="372.4" r="2.2" fill="#545454"/>
<circle cx="372.6" cy="380.0" r="2.2" fill="#545454"/>
<circle cx="374.5" cy="380.0" r="2.2" fill="#545454"/>
<circle cx="376.4" cy="380.0" r="2.2" fill="#545454"/>
<circle cx="378.2" cy="371.3" r="2.2" fill="#545454"/>
<circle cx="380.2" cy="380.0" r="2.2" fill="#545454"/>
<circle cx="382.1" cy="380.0" r="2.2" fill="#545454"/>
<circle cx="383.8" cy="380.0" r="2.2" fill="#545454"/>
<circle cx="385.8" cy="380.0" r="2.2" fill="#545454"/>
<circle cx="391.4" cy="380.0" r="2.2" fill="#545454"/>
<circle cx="393.3" cy="380.0" r="2.2" fill="#545454"/>
<circle cx="72.0" cy="418" r="2.2" fill="#545454"/><text x="79.0" y="421" font-family="Arial, sans-serif" font-size="10">Observed monthly rate</text>
<line x1="198.0" y1="418" x2="215.0" y2="418" stroke="#1f6b75" stroke-width="2"/><text x="222.0" y="421" font-family="Arial, sans-serif" font-size="10">Fitted app-level prediction</text>
<text x="590.0" y="38" text-anchor="middle" font-family="Arial, sans-serif" font-size="12" font-weight="700">Broad 55</text>
<line x1="429.3" y1="380.0" x2="750.7" y2="380.0" stroke="#e5e5e5"/>
<text x="422.3" y="384.0" text-anchor="end" font-family="Arial, sans-serif" font-size="9" fill="#444">0.0%</text>
<line x1="429.3" y1="214.0" x2="750.7" y2="214.0" stroke="#e5e5e5"/>
<text x="422.3" y="218.0" text-anchor="end" font-family="Arial, sans-serif" font-size="9" fill="#444">18.7%</text>
<line x1="429.3" y1="48.0" x2="750.7" y2="48.0" stroke="#e5e5e5"/>
<text x="422.3" y="52.0" text-anchor="end" font-family="Arial, sans-serif" font-size="9" fill="#444">37.3%</text>
<line x1="442.6" y1="48" x2="442.6" y2="380" stroke="#f0f0f0"/>
<text x="442.6" y="399" text-anchor="middle" font-family="Arial, sans-serif" font-size="9" fill="#444">2013</text>
<line x1="465.3" y1="48" x2="465.3" y2="380" stroke="#f0f0f0"/>
<text x="465.3" y="399" text-anchor="middle" font-family="Arial, sans-serif" font-size="9" fill="#444">2014</text>
<line x1="488.0" y1="48" x2="488.0" y2="380" stroke="#f0f0f0"/>
<text x="488.0" y="399" text-anchor="middle" font-family="Arial, sans-serif" font-size="9" fill="#444">2015</text>
<line x1="510.6" y1="48" x2="510.6" y2="380" stroke="#f0f0f0"/>
<text x="510.6" y="399" text-anchor="middle" font-family="Arial, sans-serif" font-size="9" fill="#444">2016</text>
<line x1="533.4" y1="48" x2="533.4" y2="380" stroke="#f0f0f0"/>
<text x="533.4" y="399" text-anchor="middle" font-family="Arial, sans-serif" font-size="9" fill="#444">2017</text>
<line x1="556.0" y1="48" x2="556.0" y2="380" stroke="#f0f0f0"/>
<text x="556.0" y="399" text-anchor="middle" font-family="Arial, sans-serif" font-size="9" fill="#444">2018</text>
<line x1="578.7" y1="48" x2="578.7" y2="380" stroke="#f0f0f0"/>
<text x="578.7" y="399" text-anchor="middle" font-family="Arial, sans-serif" font-size="9" fill="#444">2019</text>
<line x1="601.4" y1="48" x2="601.4" y2="380" stroke="#f0f0f0"/>
<text x="601.4" y="399" text-anchor="middle" font-family="Arial, sans-serif" font-size="9" fill="#444">2020</text>
<line x1="624.1" y1="48" x2="624.1" y2="380" stroke="#f0f0f0"/>
<text x="624.1" y="399" text-anchor="middle" font-family="Arial, sans-serif" font-size="9" fill="#444">2021</text>
<line x1="646.8" y1="48" x2="646.8" y2="380" stroke="#f0f0f0"/>
<text x="646.8" y="399" text-anchor="middle" font-family="Arial, sans-serif" font-size="9" fill="#444">2022</text>
<line x1="669.4" y1="48" x2="669.4" y2="380" stroke="#f0f0f0"/>
<text x="669.4" y="399" text-anchor="middle" font-family="Arial, sans-serif" font-size="9" fill="#444">2023</text>
<line x1="692.1" y1="48" x2="692.1" y2="380" stroke="#f0f0f0"/>
<text x="692.1" y="399" text-anchor="middle" font-family="Arial, sans-serif" font-size="9" fill="#444">2024</text>
<line x1="714.8" y1="48" x2="714.8" y2="380" stroke="#f0f0f0"/>
<text x="714.8" y="399" text-anchor="middle" font-family="Arial, sans-serif" font-size="9" fill="#444">2025</text>
<line x1="737.5" y1="48" x2="737.5" y2="380" stroke="#f0f0f0"/>
<text x="737.5" y="399" text-anchor="middle" font-family="Arial, sans-serif" font-size="9" fill="#444">2026</text>
<line x1="703.4" y1="48" x2="703.4" y2="380" stroke="#222" stroke-width="1.2"/>
<path d="M 429.3 350.0 L 431.2 359.1 L 433.1 323.5 L 435.0 332.0 L 436.9 365.0 L 438.8 344.3 L 440.7 360.5 L 442.6 380.0 L 444.5 344.5 L 446.3 331.3 L 448.2 344.2 L 452.0 354.0 L 453.9 361.9 L 457.7 338.5 L 459.6 367.0 L 463.4 363.1 L 465.3 380.0 L 469.0 337.8 L 470.9 349.0 L 472.7 350.3 L 474.7 357.5 L 476.5 364.3 L 478.5 337.7 L 480.4 344.0 L 482.2 368.7 L 484.2 353.2 L 486.0 365.4 L 488.0 380.0 L 489.9 353.4 L 491.6 343.5 L 493.6 353.1 L 495.4 354.2 L 497.3 360.5 L 499.2 366.4 L 501.1 343.3 L 503.1 348.8 L 504.9 370.3 L 506.8 356.8 L 508.7 367.3 L 510.6 380.0 L 512.6 357.0 L 514.4 348.4 L 516.3 356.7 L 518.1 357.7 L 520.1 363.1 L 521.9 368.2 L 523.9 348.2 L 525.8 353.0 L 527.6 371.6 L 529.6 359.9 L 531.4 369.0 L 533.4 380.0 L 535.3 360.0 L 537.0 352.6 L 538.9 359.8 L 540.8 360.7 L 542.7 365.4 L 544.6 369.8 L 546.5 352.5 L 548.5 356.6 L 550.3 372.7 L 552.2 362.6 L 558.0 362.7 L 559.7 356.3 L 561.6 362.5 L 563.5 363.3 L 565.4 367.3 L 567.3 371.2 L 569.2 356.2 L 571.1 359.8 L 573.0 373.7 L 574.9 365.0 L 576.8 371.8 L 578.7 380.0 L 580.6 365.0 L 582.4 359.5 L 584.3 364.9 L 586.1 365.5 L 588.1 369.0 L 589.9 372.4 L 591.9 359.4 L 593.8 362.5 L 595.7 374.5 L 597.6 367.0 L 599.4 372.9 L 601.4 380.0 L 603.3 367.0 L 605.1 362.2 L 607.0 366.9 L 608.9 367.5 L 610.8 370.5 L 612.7 373.4 L 614.6 362.1 L 616.5 364.8 L 618.4 375.3 L 620.3 368.7 L 622.2 373.8 L 624.1 380.0 L 626.0 368.8 L 627.8 364.6 L 629.7 368.7 L 631.5 369.1 L 633.5 371.8 L 635.3 374.3 L 637.3 364.5 L 639.2 366.9 L 641.1 375.9 L 643.0 370.2 L 644.8 374.7 L 646.8 380.0 L 648.7 370.3 L 650.4 366.7 L 652.4 370.2 L 654.2 370.6 L 656.1 372.9 L 658.0 375.0 L 659.9 366.6 L 661.9 368.6 L 663.7 376.4 L 665.6 371.5 L 667.5 375.4 L 669.4 380.0 L 671.4 371.6 L 673.1 368.4 L 675.0 371.5 L 676.9 371.9 L 678.8 373.8 L 680.7 375.7 L 682.6 368.4 L 684.5 370.1 L 686.4 376.9 L 688.3 372.7 L 690.2 376.0 L 692.1 380.0 L 694.0 372.7 L 695.8 370.0 L 697.8 372.6 L 699.6 372.9 L 701.5 374.7 L 703.4 376.3 L 707.3 379.7 L 709.1 379.9 L 711.0 379.7 L 712.9 379.8 L 714.8 380.0 L 716.8 379.6 L 718.5 379.4 L 720.4 379.5 L 722.3 379.4 L 724.2 379.5 L 726.1 379.6 L 728.0 378.8 L 729.9 378.9 L 731.8 379.6 L 733.7 378.9 L 735.6 379.3 L 737.5 380.0 L 739.4 378.4 L 741.2 377.6 L 743.1 378.0 L 748.7 378.5 L 750.7 375.4" fill="none" stroke="#b65736" stroke-width="2.1"/>
<circle cx="429.3" cy="380.0" r="2.2" fill="#545454"/>
<circle cx="431.2" cy="380.0" r="2.2" fill="#545454"/>
<circle cx="433.1" cy="380.0" r="2.2" fill="#545454"/>
<circle cx="435.0" cy="380.0" r="2.2" fill="#545454"/>
<circle cx="436.9" cy="380.0" r="2.2" fill="#545454"/>
<circle cx="438.8" cy="380.0" r="2.2" fill="#545454"/>
<circle cx="440.7" cy="380.0" r="2.2" fill="#545454"/>
<circle cx="442.6" cy="380.0" r="2.2" fill="#545454"/>
<circle cx="444.5" cy="380.0" r="2.2" fill="#545454"/>
<circle cx="446.3" cy="380.0" r="2.2" fill="#545454"/>
<circle cx="448.2" cy="380.0" r="2.2" fill="#545454"/>
<circle cx="452.0" cy="380.0" r="2.2" fill="#545454"/>
<circle cx="453.9" cy="380.0" r="2.2" fill="#545454"/>
<circle cx="457.7" cy="380.0" r="2.2" fill="#545454"/>
<circle cx="459.6" cy="380.0" r="2.2" fill="#545454"/>
<circle cx="463.4" cy="380.0" r="2.2" fill="#545454"/>
<circle cx="465.3" cy="380.0" r="2.2" fill="#545454"/>
<circle cx="469.0" cy="380.0" r="2.2" fill="#545454"/>
<circle cx="470.9" cy="380.0" r="2.2" fill="#545454"/>
<circle cx="472.7" cy="380.0" r="2.2" fill="#545454"/>
<circle cx="474.7" cy="380.0" r="2.2" fill="#545454"/>
<circle cx="476.5" cy="380.0" r="2.2" fill="#545454"/>
<circle cx="478.5" cy="380.0" r="2.2" fill="#545454"/>
<circle cx="480.4" cy="380.0" r="2.2" fill="#545454"/>
<circle cx="482.2" cy="380.0" r="2.2" fill="#545454"/>
<circle cx="484.2" cy="380.0" r="2.2" fill="#545454"/>
<circle cx="486.0" cy="380.0" r="2.2" fill="#545454"/>
<circle cx="488.0" cy="380.0" r="2.2" fill="#545454"/>
<circle cx="489.9" cy="380.0" r="2.2" fill="#545454"/>
<circle cx="491.6" cy="83.6" r="2.2" fill="#545454"/>
<circle cx="493.6" cy="324.4" r="2.2" fill="#545454"/>
<circle cx="495.4" cy="380.0" r="2.2" fill="#545454"/>
<circle cx="497.3" cy="380.0" r="2.2" fill="#545454"/>
<circle cx="499.2" cy="380.0" r="2.2" fill="#545454"/>
<circle cx="501.1" cy="380.0" r="2.2" fill="#545454"/>
<circle cx="503.1" cy="380.0" r="2.2" fill="#545454"/>
<circle cx="504.9" cy="380.0" r="2.2" fill="#545454"/>
<circle cx="506.8" cy="380.0" r="2.2" fill="#545454"/>
<circle cx="508.7" cy="380.0" r="2.2" fill="#545454"/>
<circle cx="510.6" cy="380.0" r="2.2" fill="#545454"/>
<circle cx="512.6" cy="380.0" r="2.2" fill="#545454"/>
<circle cx="514.4" cy="320.7" r="2.2" fill="#545454"/>
<circle cx="516.3" cy="339.6" r="2.2" fill="#545454"/>
<circle cx="518.1" cy="333.2" r="2.2" fill="#545454"/>
<circle cx="520.1" cy="380.0" r="2.2" fill="#545454"/>
<circle cx="521.9" cy="380.0" r="2.2" fill="#545454"/>
<circle cx="523.9" cy="380.0" r="2.2" fill="#545454"/>
<circle cx="525.8" cy="380.0" r="2.2" fill="#545454"/>
<circle cx="527.6" cy="316.5" r="2.2" fill="#545454"/>
<circle cx="529.6" cy="337.7" r="2.2" fill="#545454"/>
<circle cx="531.4" cy="299.2" r="2.2" fill="#545454"/>
<circle cx="533.4" cy="380.0" r="2.2" fill="#545454"/>
<circle cx="535.3" cy="380.0" r="2.2" fill="#545454"/>
<circle cx="537.0" cy="327.7" r="2.2" fill="#545454"/>
<circle cx="538.9" cy="380.0" r="2.2" fill="#545454"/>
<circle cx="540.8" cy="380.0" r="2.2" fill="#545454"/>
<circle cx="542.7" cy="380.0" r="2.2" fill="#545454"/>
<circle cx="544.6" cy="337.7" r="2.2" fill="#545454"/>
<circle cx="546.5" cy="268.8" r="2.2" fill="#545454"/>
<circle cx="548.5" cy="380.0" r="2.2" fill="#545454"/>
<circle cx="550.3" cy="157.7" r="2.2" fill="#545454"/>
<circle cx="552.2" cy="380.0" r="2.2" fill="#545454"/>
<circle cx="558.0" cy="380.0" r="2.2" fill="#545454"/>
<circle cx="559.7" cy="380.0" r="2.2" fill="#545454"/>
<circle cx="561.6" cy="333.2" r="2.2" fill="#545454"/>
<circle cx="563.5" cy="380.0" r="2.2" fill="#545454"/>
<circle cx="565.4" cy="380.0" r="2.2" fill="#545454"/>
<circle cx="567.3" cy="380.0" r="2.2" fill="#545454"/>
<circle cx="569.2" cy="344.4" r="2.2" fill="#545454"/>
<circle cx="571.1" cy="359.3" r="2.2" fill="#545454"/>
<circle cx="573.0" cy="380.0" r="2.2" fill="#545454"/>
<circle cx="574.9" cy="380.0" r="2.2" fill="#545454"/>
<circle cx="576.8" cy="380.0" r="2.2" fill="#545454"/>
<circle cx="578.7" cy="380.0" r="2.2" fill="#545454"/>
<circle cx="580.6" cy="380.0" r="2.2" fill="#545454"/>
<circle cx="582.4" cy="362.9" r="2.2" fill="#545454"/>
<circle cx="584.3" cy="354.6" r="2.2" fill="#545454"/>
<circle cx="586.1" cy="350.4" r="2.2" fill="#545454"/>
<circle cx="588.1" cy="380.0" r="2.2" fill="#545454"/>
<circle cx="589.9" cy="362.2" r="2.2" fill="#545454"/>
<circle cx="591.9" cy="380.0" r="2.2" fill="#545454"/>
<circle cx="593.8" cy="293.9" r="2.2" fill="#545454"/>
<circle cx="595.7" cy="380.0" r="2.2" fill="#545454"/>
<circle cx="597.6" cy="345.8" r="2.2" fill="#545454"/>
<circle cx="599.4" cy="380.0" r="2.2" fill="#545454"/>
<circle cx="601.4" cy="380.0" r="2.2" fill="#545454"/>
<circle cx="603.3" cy="342.2" r="2.2" fill="#545454"/>
<circle cx="605.1" cy="360.5" r="2.2" fill="#545454"/>
<circle cx="607.0" cy="345.1" r="2.2" fill="#545454"/>
<circle cx="608.9" cy="355.3" r="2.2" fill="#545454"/>
<circle cx="610.8" cy="367.1" r="2.2" fill="#545454"/>
<circle cx="612.7" cy="380.0" r="2.2" fill="#545454"/>
<circle cx="614.6" cy="361.9" r="2.2" fill="#545454"/>
<circle cx="616.5" cy="380.0" r="2.2" fill="#545454"/>
<circle cx="618.4" cy="380.0" r="2.2" fill="#545454"/>
<circle cx="620.3" cy="335.5" r="2.2" fill="#545454"/>
<circle cx="622.2" cy="380.0" r="2.2" fill="#545454"/>
<circle cx="624.1" cy="380.0" r="2.2" fill="#545454"/>
<circle cx="626.0" cy="364.1" r="2.2" fill="#545454"/>
<circle cx="627.8" cy="357.2" r="2.2" fill="#545454"/>
<circle cx="629.7" cy="380.0" r="2.2" fill="#545454"/>
<circle cx="631.5" cy="357.8" r="2.2" fill="#545454"/>
<circle cx="633.5" cy="339.6" r="2.2" fill="#545454"/>
<circle cx="635.3" cy="380.0" r="2.2" fill="#545454"/>
<circle cx="637.3" cy="380.0" r="2.2" fill="#545454"/>
<circle cx="639.2" cy="380.0" r="2.2" fill="#545454"/>
<circle cx="641.1" cy="380.0" r="2.2" fill="#545454"/>
<circle cx="643.0" cy="380.0" r="2.2" fill="#545454"/>
<circle cx="644.8" cy="380.0" r="2.2" fill="#545454"/>
<circle cx="646.8" cy="380.0" r="2.2" fill="#545454"/>
<circle cx="648.7" cy="365.7" r="2.2" fill="#545454"/>
<circle cx="650.4" cy="369.0" r="2.2" fill="#545454"/>
<circle cx="652.4" cy="380.0" r="2.2" fill="#545454"/>
<circle cx="654.2" cy="380.0" r="2.2" fill="#545454"/>
<circle cx="656.1" cy="380.0" r="2.2" fill="#545454"/>
<circle cx="658.0" cy="363.2" r="2.2" fill="#545454"/>
<circle cx="659.9" cy="355.6" r="2.2" fill="#545454"/>
<circle cx="661.9" cy="361.1" r="2.2" fill="#545454"/>
<circle cx="663.7" cy="380.0" r="2.2" fill="#545454"/>
<circle cx="665.6" cy="380.0" r="2.2" fill="#545454"/>
<circle cx="667.5" cy="380.0" r="2.2" fill="#545454"/>
<circle cx="669.4" cy="380.0" r="2.2" fill="#545454"/>
<circle cx="671.4" cy="380.0" r="2.2" fill="#545454"/>
<circle cx="673.1" cy="380.0" r="2.2" fill="#545454"/>
<circle cx="675.0" cy="380.0" r="2.2" fill="#545454"/>
<circle cx="676.9" cy="380.0" r="2.2" fill="#545454"/>
<circle cx="678.8" cy="368.3" r="2.2" fill="#545454"/>
<circle cx="680.7" cy="380.0" r="2.2" fill="#545454"/>
<circle cx="682.6" cy="380.0" r="2.2" fill="#545454"/>
<circle cx="684.5" cy="364.4" r="2.2" fill="#545454"/>
<circle cx="686.4" cy="380.0" r="2.2" fill="#545454"/>
<circle cx="688.3" cy="380.0" r="2.2" fill="#545454"/>
<circle cx="690.2" cy="380.0" r="2.2" fill="#545454"/>
<circle cx="692.1" cy="380.0" r="2.2" fill="#545454"/>
<circle cx="694.0" cy="362.6" r="2.2" fill="#545454"/>
<circle cx="695.8" cy="369.3" r="2.2" fill="#545454"/>
<circle cx="697.8" cy="380.0" r="2.2" fill="#545454"/>
<circle cx="699.6" cy="380.0" r="2.2" fill="#545454"/>
<circle cx="701.5" cy="380.0" r="2.2" fill="#545454"/>
<circle cx="703.4" cy="380.0" r="2.2" fill="#545454"/>
<circle cx="707.3" cy="380.0" r="2.2" fill="#545454"/>
<circle cx="709.1" cy="380.0" r="2.2" fill="#545454"/>
<circle cx="711.0" cy="380.0" r="2.2" fill="#545454"/>
<circle cx="712.9" cy="380.0" r="2.2" fill="#545454"/>
<circle cx="714.8" cy="380.0" r="2.2" fill="#545454"/>
<circle cx="716.8" cy="380.0" r="2.2" fill="#545454"/>
<circle cx="718.5" cy="380.0" r="2.2" fill="#545454"/>
<circle cx="720.4" cy="380.0" r="2.2" fill="#545454"/>
<circle cx="722.3" cy="380.0" r="2.2" fill="#545454"/>
<circle cx="724.2" cy="380.0" r="2.2" fill="#545454"/>
<circle cx="726.1" cy="380.0" r="2.2" fill="#545454"/>
<circle cx="728.0" cy="372.4" r="2.2" fill="#545454"/>
<circle cx="729.9" cy="380.0" r="2.2" fill="#545454"/>
<circle cx="731.8" cy="380.0" r="2.2" fill="#545454"/>
<circle cx="733.7" cy="380.0" r="2.2" fill="#545454"/>
<circle cx="735.6" cy="371.3" r="2.2" fill="#545454"/>
<circle cx="737.5" cy="380.0" r="2.2" fill="#545454"/>
<circle cx="739.4" cy="380.0" r="2.2" fill="#545454"/>
<circle cx="741.2" cy="380.0" r="2.2" fill="#545454"/>
<circle cx="743.1" cy="380.0" r="2.2" fill="#545454"/>
<circle cx="748.7" cy="380.0" r="2.2" fill="#545454"/>
<circle cx="750.7" cy="380.0" r="2.2" fill="#545454"/>
<text x="947.3" y="38" text-anchor="middle" font-family="Arial, sans-serif" font-size="12" font-weight="700">Candidate-inclusive upper bound</text>
<line x1="786.7" y1="380.0" x2="1108.0" y2="380.0" stroke="#e5e5e5"/>
<text x="779.7" y="384.0" text-anchor="end" font-family="Arial, sans-serif" font-size="9" fill="#444">0.0%</text>
<line x1="786.7" y1="214.0" x2="1108.0" y2="214.0" stroke="#e5e5e5"/>
<text x="779.7" y="218.0" text-anchor="end" font-family="Arial, sans-serif" font-size="9" fill="#444">18.7%</text>
<line x1="786.7" y1="48.0" x2="1108.0" y2="48.0" stroke="#e5e5e5"/>
<text x="779.7" y="52.0" text-anchor="end" font-family="Arial, sans-serif" font-size="9" fill="#444">37.3%</text>
<line x1="800.0" y1="48" x2="800.0" y2="380" stroke="#f0f0f0"/>
<text x="800.0" y="399" text-anchor="middle" font-family="Arial, sans-serif" font-size="9" fill="#444">2013</text>
<line x1="822.6" y1="48" x2="822.6" y2="380" stroke="#f0f0f0"/>
<text x="822.6" y="399" text-anchor="middle" font-family="Arial, sans-serif" font-size="9" fill="#444">2014</text>
<line x1="845.3" y1="48" x2="845.3" y2="380" stroke="#f0f0f0"/>
<text x="845.3" y="399" text-anchor="middle" font-family="Arial, sans-serif" font-size="9" fill="#444">2015</text>
<line x1="868.0" y1="48" x2="868.0" y2="380" stroke="#f0f0f0"/>
<text x="868.0" y="399" text-anchor="middle" font-family="Arial, sans-serif" font-size="9" fill="#444">2016</text>
<line x1="890.7" y1="48" x2="890.7" y2="380" stroke="#f0f0f0"/>
<text x="890.7" y="399" text-anchor="middle" font-family="Arial, sans-serif" font-size="9" fill="#444">2017</text>
<line x1="913.4" y1="48" x2="913.4" y2="380" stroke="#f0f0f0"/>
<text x="913.4" y="399" text-anchor="middle" font-family="Arial, sans-serif" font-size="9" fill="#444">2018</text>
<line x1="936.0" y1="48" x2="936.0" y2="380" stroke="#f0f0f0"/>
<text x="936.0" y="399" text-anchor="middle" font-family="Arial, sans-serif" font-size="9" fill="#444">2019</text>
<line x1="958.7" y1="48" x2="958.7" y2="380" stroke="#f0f0f0"/>
<text x="958.7" y="399" text-anchor="middle" font-family="Arial, sans-serif" font-size="9" fill="#444">2020</text>
<line x1="981.4" y1="48" x2="981.4" y2="380" stroke="#f0f0f0"/>
<text x="981.4" y="399" text-anchor="middle" font-family="Arial, sans-serif" font-size="9" fill="#444">2021</text>
<line x1="1004.1" y1="48" x2="1004.1" y2="380" stroke="#f0f0f0"/>
<text x="1004.1" y="399" text-anchor="middle" font-family="Arial, sans-serif" font-size="9" fill="#444">2022</text>
<line x1="1026.8" y1="48" x2="1026.8" y2="380" stroke="#f0f0f0"/>
<text x="1026.8" y="399" text-anchor="middle" font-family="Arial, sans-serif" font-size="9" fill="#444">2023</text>
<line x1="1049.4" y1="48" x2="1049.4" y2="380" stroke="#f0f0f0"/>
<text x="1049.4" y="399" text-anchor="middle" font-family="Arial, sans-serif" font-size="9" fill="#444">2024</text>
<line x1="1072.2" y1="48" x2="1072.2" y2="380" stroke="#f0f0f0"/>
<text x="1072.2" y="399" text-anchor="middle" font-family="Arial, sans-serif" font-size="9" fill="#444">2025</text>
<line x1="1094.8" y1="48" x2="1094.8" y2="380" stroke="#f0f0f0"/>
<text x="1094.8" y="399" text-anchor="middle" font-family="Arial, sans-serif" font-size="9" fill="#444">2026</text>
<line x1="1060.7" y1="48" x2="1060.7" y2="380" stroke="#222" stroke-width="1.2"/>
<path d="M 786.7 314.5 L 788.5 315.7 L 790.5 298.2 L 792.4 319.0 L 794.2 318.0 L 796.2 310.8 L 798.0 266.3 L 800.0 340.8 L 801.9 316.7 L 803.6 276.1 L 805.5 315.3 L 809.3 319.4 L 811.2 320.5 L 815.0 323.6 L 816.9 322.6 L 820.7 274.8 L 822.6 343.7 L 826.3 283.9 L 828.2 320.1 L 830.1 313.0 L 832.0 323.9 L 833.9 325.0 L 835.8 310.0 L 837.7 327.8 L 839.6 326.9 L 841.5 320.8 L 843.4 282.6 L 845.3 346.4 L 847.2 325.8 L 849.0 291.0 L 850.9 324.6 L 852.7 318.0 L 854.7 328.1 L 856.5 329.1 L 858.5 315.2 L 860.4 331.7 L 862.2 330.9 L 864.2 325.2 L 866.0 289.9 L 868.0 348.9 L 869.9 329.8 L 871.7 297.7 L 873.6 328.8 L 875.5 322.7 L 877.4 332.0 L 879.3 332.9 L 881.2 320.1 L 883.1 335.3 L 885.0 334.5 L 886.9 329.3 L 888.8 296.6 L 890.7 351.3 L 892.6 333.6 L 894.4 303.8 L 896.3 332.6 L 898.1 326.9 L 900.1 335.6 L 901.9 336.4 L 903.9 324.5 L 905.8 338.6 L 907.6 337.9 L 909.6 333.1 L 915.3 337.1 L 917.0 309.5 L 919.0 336.1 L 920.8 330.9 L 922.7 338.9 L 924.6 339.7 L 926.5 328.7 L 928.5 341.7 L 930.3 341.1 L 932.2 336.6 L 934.1 308.6 L 936.0 355.4 L 938.0 340.3 L 939.7 314.8 L 941.6 339.4 L 943.5 334.6 L 945.4 342.0 L 947.3 342.7 L 949.2 332.5 L 951.1 344.6 L 953.0 344.0 L 954.9 339.8 L 956.8 314.0 L 958.7 357.2 L 960.6 343.2 L 962.4 319.7 L 964.4 342.4 L 966.2 338.0 L 968.1 344.8 L 970.0 345.5 L 971.9 336.1 L 973.9 347.2 L 975.7 346.7 L 977.6 342.8 L 979.5 318.9 L 981.4 358.9 L 983.4 346.0 L 985.1 324.2 L 987.0 345.2 L 988.9 341.1 L 990.8 347.4 L 992.7 348.1 L 994.6 339.3 L 996.5 349.7 L 998.4 349.2 L 1000.3 345.6 L 1002.2 323.5 L 1004.1 360.5 L 1006.0 348.5 L 1007.8 328.3 L 1009.7 347.8 L 1011.6 344.0 L 1013.5 349.9 L 1015.3 350.4 L 1017.3 342.4 L 1019.2 351.9 L 1021.1 351.5 L 1023.0 348.2 L 1024.8 327.7 L 1026.8 362.0 L 1028.7 350.9 L 1030.4 332.2 L 1032.4 350.2 L 1034.2 346.7 L 1036.1 352.1 L 1038.0 352.7 L 1039.9 345.2 L 1041.9 354.0 L 1043.7 353.6 L 1045.6 350.5 L 1047.5 331.6 L 1049.4 363.3 L 1051.4 353.1 L 1053.2 335.8 L 1055.1 352.5 L 1056.9 349.2 L 1058.9 354.2 L 1060.7 354.7 L 1064.6 364.1 L 1066.5 363.2 L 1068.4 360.6 L 1070.2 346.8 L 1072.2 368.1 L 1074.1 360.2 L 1075.8 346.2 L 1077.8 358.2 L 1079.6 354.7 L 1081.5 358.0 L 1083.4 357.6 L 1085.3 350.5 L 1087.3 357.2 L 1089.1 355.9 L 1091.0 352.1 L 1092.9 332.5 L 1094.8 363.0 L 1096.8 351.6 L 1098.5 331.6 L 1100.4 348.8 L 1106.1 348.0 L 1108.0 337.7" fill="none" stroke="#5a7b3d" stroke-width="2.1"/>
<circle cx="786.7" cy="380.0" r="2.2" fill="#545454"/>
<circle cx="788.5" cy="380.0" r="2.2" fill="#545454"/>
<circle cx="790.5" cy="380.0" r="2.2" fill="#545454"/>
<circle cx="792.4" cy="157.7" r="2.2" fill="#545454"/>
<circle cx="794.2" cy="380.0" r="2.2" fill="#545454"/>
<circle cx="796.2" cy="380.0" r="2.2" fill="#545454"/>
<circle cx="798.0" cy="380.0" r="2.2" fill="#545454"/>
<circle cx="800.0" cy="380.0" r="2.2" fill="#545454"/>
<circle cx="801.9" cy="380.0" r="2.2" fill="#545454"/>
<circle cx="803.6" cy="380.0" r="2.2" fill="#545454"/>
<circle cx="805.5" cy="380.0" r="2.2" fill="#545454"/>
<circle cx="809.3" cy="202.1" r="2.2" fill="#545454"/>
<circle cx="811.2" cy="380.0" r="2.2" fill="#545454"/>
<circle cx="815.0" cy="380.0" r="2.2" fill="#545454"/>
<circle cx="816.9" cy="380.0" r="2.2" fill="#545454"/>
<circle cx="820.7" cy="380.0" r="2.2" fill="#545454"/>
<circle cx="822.6" cy="380.0" r="2.2" fill="#545454"/>
<circle cx="826.3" cy="380.0" r="2.2" fill="#545454"/>
<circle cx="828.2" cy="380.0" r="2.2" fill="#545454"/>
<circle cx="830.1" cy="380.0" r="2.2" fill="#545454"/>
<circle cx="832.0" cy="380.0" r="2.2" fill="#545454"/>
<circle cx="833.9" cy="380.0" r="2.2" fill="#545454"/>
<circle cx="835.8" cy="380.0" r="2.2" fill="#545454"/>
<circle cx="837.7" cy="380.0" r="2.2" fill="#545454"/>
<circle cx="839.6" cy="380.0" r="2.2" fill="#545454"/>
<circle cx="841.5" cy="380.0" r="2.2" fill="#545454"/>
<circle cx="843.4" cy="231.8" r="2.2" fill="#545454"/>
<circle cx="845.3" cy="380.0" r="2.2" fill="#545454"/>
<circle cx="847.2" cy="380.0" r="2.2" fill="#545454"/>
<circle cx="849.0" cy="83.6" r="2.2" fill="#545454"/>
<circle cx="850.9" cy="324.4" r="2.2" fill="#545454"/>
<circle cx="852.7" cy="380.0" r="2.2" fill="#545454"/>
<circle cx="854.7" cy="231.8" r="2.2" fill="#545454"/>
<circle cx="856.5" cy="320.7" r="2.2" fill="#545454"/>
<circle cx="858.5" cy="380.0" r="2.2" fill="#545454"/>
<circle cx="860.4" cy="380.0" r="2.2" fill="#545454"/>
<circle cx="862.2" cy="272.2" r="2.2" fill="#545454"/>
<circle cx="864.2" cy="380.0" r="2.2" fill="#545454"/>
<circle cx="866.0" cy="137.5" r="2.2" fill="#545454"/>
<circle cx="868.0" cy="246.6" r="2.2" fill="#545454"/>
<circle cx="869.9" cy="380.0" r="2.2" fill="#545454"/>
<circle cx="871.7" cy="320.7" r="2.2" fill="#545454"/>
<circle cx="873.6" cy="339.6" r="2.2" fill="#545454"/>
<circle cx="875.5" cy="333.2" r="2.2" fill="#545454"/>
<circle cx="877.4" cy="335.5" r="2.2" fill="#545454"/>
<circle cx="879.3" cy="380.0" r="2.2" fill="#545454"/>
<circle cx="881.2" cy="380.0" r="2.2" fill="#545454"/>
<circle cx="883.1" cy="380.0" r="2.2" fill="#545454"/>
<circle cx="885.0" cy="316.5" r="2.2" fill="#545454"/>
<circle cx="886.9" cy="337.7" r="2.2" fill="#545454"/>
<circle cx="888.8" cy="299.2" r="2.2" fill="#545454"/>
<circle cx="890.7" cy="380.0" r="2.2" fill="#545454"/>
<circle cx="892.6" cy="380.0" r="2.2" fill="#545454"/>
<circle cx="894.4" cy="275.4" r="2.2" fill="#545454"/>
<circle cx="896.3" cy="380.0" r="2.2" fill="#545454"/>
<circle cx="898.1" cy="324.4" r="2.2" fill="#545454"/>
<circle cx="900.1" cy="327.7" r="2.2" fill="#545454"/>
<circle cx="901.9" cy="337.7" r="2.2" fill="#545454"/>
<circle cx="903.9" cy="157.7" r="2.2" fill="#545454"/>
<circle cx="905.8" cy="291.1" r="2.2" fill="#545454"/>
<circle cx="907.6" cy="157.7" r="2.2" fill="#545454"/>
<circle cx="909.6" cy="157.7" r="2.2" fill="#545454"/>
<circle cx="915.3" cy="380.0" r="2.2" fill="#545454"/>
<circle cx="917.0" cy="380.0" r="2.2" fill="#545454"/>
<circle cx="919.0" cy="333.2" r="2.2" fill="#545454"/>
<circle cx="920.8" cy="380.0" r="2.2" fill="#545454"/>
<circle cx="922.7" cy="380.0" r="2.2" fill="#545454"/>
<circle cx="924.6" cy="356.6" r="2.2" fill="#545454"/>
<circle cx="926.5" cy="344.4" r="2.2" fill="#545454"/>
<circle cx="928.5" cy="338.6" r="2.2" fill="#545454"/>
<circle cx="930.3" cy="380.0" r="2.2" fill="#545454"/>
<circle cx="932.2" cy="359.8" r="2.2" fill="#545454"/>
<circle cx="934.1" cy="324.4" r="2.2" fill="#545454"/>
<circle cx="936.0" cy="380.0" r="2.2" fill="#545454"/>
<circle cx="938.0" cy="380.0" r="2.2" fill="#545454"/>
<circle cx="939.7" cy="294.5" r="2.2" fill="#545454"/>
<circle cx="941.6" cy="303.8" r="2.2" fill="#545454"/>
<circle cx="943.5" cy="335.5" r="2.2" fill="#545454"/>
<circle cx="945.4" cy="326.1" r="2.2" fill="#545454"/>
<circle cx="947.3" cy="326.6" r="2.2" fill="#545454"/>
<circle cx="949.2" cy="380.0" r="2.2" fill="#545454"/>
<circle cx="951.1" cy="265.3" r="2.2" fill="#545454"/>
<circle cx="953.0" cy="380.0" r="2.2" fill="#545454"/>
<circle cx="954.9" cy="311.6" r="2.2" fill="#545454"/>
<circle cx="956.8" cy="349.3" r="2.2" fill="#545454"/>
<circle cx="958.7" cy="363.2" r="2.2" fill="#545454"/>
<circle cx="960.6" cy="323.2" r="2.2" fill="#545454"/>
<circle cx="962.4" cy="282.3" r="2.2" fill="#545454"/>
<circle cx="964.4" cy="327.7" r="2.2" fill="#545454"/>
<circle cx="966.2" cy="305.9" r="2.2" fill="#545454"/>
<circle cx="968.1" cy="341.3" r="2.2" fill="#545454"/>
<circle cx="970.0" cy="312.9" r="2.2" fill="#545454"/>
<circle cx="971.9" cy="325.6" r="2.2" fill="#545454"/>
<circle cx="973.9" cy="380.0" r="2.2" fill="#545454"/>
<circle cx="975.7" cy="349.3" r="2.2" fill="#545454"/>
<circle cx="977.6" cy="335.5" r="2.2" fill="#545454"/>
<circle cx="979.5" cy="380.0" r="2.2" fill="#545454"/>
<circle cx="981.4" cy="369.8" r="2.2" fill="#545454"/>
<circle cx="983.4" cy="316.5" r="2.2" fill="#545454"/>
<circle cx="985.1" cy="277.4" r="2.2" fill="#545454"/>
<circle cx="987.0" cy="335.5" r="2.2" fill="#545454"/>
<circle cx="988.9" cy="313.3" r="2.2" fill="#545454"/>
<circle cx="990.8" cy="319.4" r="2.2" fill="#545454"/>
<circle cx="992.7" cy="344.4" r="2.2" fill="#545454"/>
<circle cx="994.6" cy="291.1" r="2.2" fill="#545454"/>
<circle cx="996.5" cy="380.0" r="2.2" fill="#545454"/>
<circle cx="998.4" cy="341.3" r="2.2" fill="#545454"/>
<circle cx="1000.3" cy="274.1" r="2.2" fill="#545454"/>
<circle cx="1002.2" cy="253.0" r="2.2" fill="#545454"/>
<circle cx="1004.1" cy="355.3" r="2.2" fill="#545454"/>
<circle cx="1006.0" cy="337.0" r="2.2" fill="#545454"/>
<circle cx="1007.8" cy="336.1" r="2.2" fill="#545454"/>
<circle cx="1009.7" cy="364.9" r="2.2" fill="#545454"/>
<circle cx="1011.6" cy="353.1" r="2.2" fill="#545454"/>
<circle cx="1013.5" cy="360.7" r="2.2" fill="#545454"/>
<circle cx="1015.3" cy="363.2" r="2.2" fill="#545454"/>
<circle cx="1017.3" cy="331.3" r="2.2" fill="#545454"/>
<circle cx="1019.2" cy="342.2" r="2.2" fill="#545454"/>
<circle cx="1021.1" cy="354.6" r="2.2" fill="#545454"/>
<circle cx="1023.0" cy="368.0" r="2.2" fill="#545454"/>
<circle cx="1024.8" cy="342.9" r="2.2" fill="#545454"/>
<circle cx="1026.8" cy="364.7" r="2.2" fill="#545454"/>
<circle cx="1028.7" cy="380.0" r="2.2" fill="#545454"/>
<circle cx="1030.4" cy="343.5" r="2.2" fill="#545454"/>
<circle cx="1032.4" cy="334.0" r="2.2" fill="#545454"/>
<circle cx="1034.2" cy="351.8" r="2.2" fill="#545454"/>
<circle cx="1036.1" cy="344.9" r="2.2" fill="#545454"/>
<circle cx="1038.0" cy="365.7" r="2.2" fill="#545454"/>
<circle cx="1039.9" cy="349.3" r="2.2" fill="#545454"/>
<circle cx="1041.9" cy="333.2" r="2.2" fill="#545454"/>
<circle cx="1043.7" cy="367.5" r="2.2" fill="#545454"/>
<circle cx="1045.6" cy="368.9" r="2.2" fill="#545454"/>
<circle cx="1047.5" cy="356.0" r="2.2" fill="#545454"/>
<circle cx="1049.4" cy="380.0" r="2.2" fill="#545454"/>
<circle cx="1051.4" cy="327.7" r="2.2" fill="#545454"/>
<circle cx="1053.2" cy="347.9" r="2.2" fill="#545454"/>
<circle cx="1055.1" cy="380.0" r="2.2" fill="#545454"/>
<circle cx="1056.9" cy="380.0" r="2.2" fill="#545454"/>
<circle cx="1058.9" cy="380.0" r="2.2" fill="#545454"/>
<circle cx="1060.7" cy="380.0" r="2.2" fill="#545454"/>
<circle cx="1064.6" cy="380.0" r="2.2" fill="#545454"/>
<circle cx="1066.5" cy="362.9" r="2.2" fill="#545454"/>
<circle cx="1068.4" cy="362.9" r="2.2" fill="#545454"/>
<circle cx="1070.2" cy="338.1" r="2.2" fill="#545454"/>
<circle cx="1072.2" cy="353.3" r="2.2" fill="#545454"/>
<circle cx="1074.1" cy="380.0" r="2.2" fill="#545454"/>
<circle cx="1075.8" cy="363.8" r="2.2" fill="#545454"/>
<circle cx="1077.8" cy="350.5" r="2.2" fill="#545454"/>
<circle cx="1079.6" cy="344.7" r="2.2" fill="#545454"/>
<circle cx="1081.5" cy="368.9" r="2.2" fill="#545454"/>
<circle cx="1083.4" cy="352.1" r="2.2" fill="#545454"/>
<circle cx="1085.3" cy="349.6" r="2.2" fill="#545454"/>
<circle cx="1087.3" cy="363.8" r="2.2" fill="#545454"/>
<circle cx="1089.1" cy="346.1" r="2.2" fill="#545454"/>
<circle cx="1091.0" cy="353.7" r="2.2" fill="#545454"/>
<circle cx="1092.9" cy="345.1" r="2.2" fill="#545454"/>
<circle cx="1094.8" cy="355.5" r="2.2" fill="#545454"/>
<circle cx="1096.8" cy="327.7" r="2.2" fill="#545454"/>
<circle cx="1098.5" cy="348.5" r="2.2" fill="#545454"/>
<circle cx="1100.4" cy="351.8" r="2.2" fill="#545454"/>
<circle cx="1106.1" cy="380.0" r="2.2" fill="#545454"/>
<circle cx="1108.0" cy="380.0" r="2.2" fill="#545454"/>
</svg>
