<svg xmlns="http://www.w3.org/2000/svg" width="1080" height="540" viewBox="0 0 1080 540">
<rect width="100%" height="100%" fill="#ffffff"/>
<text x="540.0" y="28" text-anchor="middle" font-family="Arial, sans-serif" font-size="15" font-weight="700">New Comparative ITS: Treatment vs Strict Control - Segmented Trends</text>
<line x1="90" y1="474.0" x2="850" y2="474.0" stroke="#dedede"/>
<text x="80" y="478.0" text-anchor="end" font-family="Arial, sans-serif" font-size="11" fill="#444">-28</text>
<line x1="90" y1="368.5" x2="850" y2="368.5" stroke="#dedede"/>
<text x="80" y="372.5" text-anchor="end" font-family="Arial, sans-serif" font-size="11" fill="#444">74</text>
<line x1="90" y1="263.0" x2="850" y2="263.0" stroke="#dedede"/>
<text x="80" y="267.0" text-anchor="end" font-family="Arial, sans-serif" font-size="11" fill="#444">176</text>
<line x1="90" y1="157.5" x2="850" y2="157.5" stroke="#dedede"/>
<text x="80" y="161.5" text-anchor="end" font-family="Arial, sans-serif" font-size="11" fill="#444">278</text>
<line x1="90" y1="52.0" x2="850" y2="52.0" stroke="#dedede"/>
<text x="80" y="56.0" text-anchor="end" font-family="Arial, sans-serif" font-size="11" fill="#444">380</text>
<line x1="90.0" y1="52" x2="90.0" y2="474" stroke="#eeeeee"/>
<text x="90.0" y="512" text-anchor="middle" font-family="Arial, sans-serif" font-size="12" fill="#444">2021</text>
<line x1="132.2" y1="52" x2="132.2" y2="474" stroke="#eeeeee"/>
<text x="132.2" y="512" text-anchor="middle" font-family="Arial, sans-serif" font-size="12" fill="#444">2022</text>
<line x1="301.1" y1="52" x2="301.1" y2="474" stroke="#eeeeee"/>
<text x="301.1" y="512" text-anchor="middle" font-family="Arial, sans-serif" font-size="12" fill="#444">2023</text>
<line x1="470.0" y1="52" x2="470.0" y2="474" stroke="#eeeeee"/>
<text x="470.0" y="512" text-anchor="middle" font-family="Arial, sans-serif" font-size="12" fill="#444">2024</text>
<line x1="638.9" y1="52" x2="638.9" y2="474" stroke="#eeeeee"/>
<text x="638.9" y="512" text-anchor="middle" font-family="Arial, sans-serif" font-size="12" fill="#444">2025</text>
<line x1="807.8" y1="52" x2="807.8" y2="474" stroke="#eeeeee"/>
<text x="807.8" y="512" text-anchor="middle" font-family="Arial, sans-serif" font-size="12" fill="#444">2026</text>
<line x1="90" y1="341.4" x2="850" y2="341.4" stroke="#777" stroke-width="1.2" stroke-dasharray="2 5"/>
<text x="842" y="336.4" text-anchor="end" font-family="Arial, sans-serif" font-size="10" fill="#555">100</text>
<line x1="554.4" y1="52" x2="554.4" y2="474" stroke="#111" stroke-width="2.2"/>
<text x="561.4" y="68" font-family="Arial, sans-serif" font-size="11" fill="#111">Jul 2024</text>
<polyline fill="none" stroke="#b24a38" stroke-width="2.4" points="90.0,297.5 104.1,301.1 118.1,304.7 132.2,308.3 146.3,311.9 160.4,315.5 174.4,319.1 188.5,322.7 202.6,326.3 216.7,329.9 230.7,333.5 244.8,337.1 258.9,340.7 273.0,344.3 287.0,347.9 301.1,351.5 315.2,355.1 329.3,358.7 343.3,362.3 357.4,365.9 371.5,369.5 385.6,373.1 399.6,376.7 413.7,380.3 427.8,383.9 441.9,387.5 455.9,391.1 470.0,394.7 484.1,398.3 498.1,401.9 512.2,405.6 526.3,409.2 540.4,412.8 554.4,302.5 568.5,297.9 582.6,293.2 596.7,288.6 610.7,284.0 624.8,279.3 638.9,274.7 653.0,270.1 667.0,265.4 681.1,260.8 695.2,256.1 709.3,251.5 723.3,246.9 737.4,242.2 751.5,237.6 765.6,232.9 779.6,228.3 793.7,223.7 807.8,219.0 821.9,214.4 835.9,209.7 850.0,205.1"/>
<line x1="878" y1="60" x2="908" y2="60" stroke="#b24a38" stroke-width="2.4"/>
<text x="916" y="64" font-family="Arial, sans-serif" font-size="12" fill="#333">Fitted control</text>
<polyline fill="none" stroke="#24536b" stroke-width="2.4" points="90.0,348.5 104.1,347.0 118.1,345.6 132.2,344.1 146.3,342.7 160.4,341.2 174.4,339.8 188.5,338.3 202.6,336.8 216.7,335.4 230.7,333.9 244.8,332.5 258.9,331.0 273.0,329.6 287.0,328.1 301.1,326.7 315.2,325.2 329.3,323.8 343.3,322.3 357.4,320.8 371.5,319.4 385.6,317.9 399.6,316.5 413.7,315.0 427.8,313.6 441.9,312.1 455.9,310.7 470.0,309.2 484.1,307.7 498.1,306.3 512.2,304.8 526.3,303.4 540.4,301.9 554.4,328.7 568.5,316.9 582.6,305.1 596.7,293.3 610.7,281.5 624.8,269.7 638.9,257.9 653.0,246.2 667.0,234.4 681.1,222.6 695.2,210.8 709.3,199.0 723.3,187.2 737.4,175.4 751.5,163.6 765.6,151.8 779.6,140.1 793.7,128.3 807.8,116.5 821.9,104.7 835.9,92.9 850.0,81.1"/>
<line x1="878" y1="82" x2="908" y2="82" stroke="#24536b" stroke-width="2.4"/>
<text x="916" y="86" font-family="Arial, sans-serif" font-size="12" fill="#333">Fitted treatment</text>
<text x="20" y="263.0" transform="rotate(-90 20 263.0)" text-anchor="middle" font-family="Arial, sans-serif" font-size="12">Entry index (month fixed effects netted out)</text>
<text x="90" y="532" font-family="Arial, sans-serif" font-size="11" fill="#333">Vertical line marks the July 2024 breakpoint.</text>
</svg>
