<svg xmlns="http://www.w3.org/2000/svg" width="1080" height="540" viewBox="0 0 1080 540">
<rect width="100%" height="100%" fill="#ffffff"/>
<text x="540.0" y="28" text-anchor="middle" font-family="Arial, sans-serif" font-size="15" font-weight="700">New Comparative ITS: Treatment vs Strict Control - Fitted Entry Index</text>
<line x1="90" y1="474.0" x2="850" y2="474.0" stroke="#dedede"/>
<text x="80" y="478.0" text-anchor="end" font-family="Arial, sans-serif" font-size="11" fill="#444">-29</text>
<line x1="90" y1="368.5" x2="850" y2="368.5" stroke="#dedede"/>
<text x="80" y="372.5" text-anchor="end" font-family="Arial, sans-serif" font-size="11" fill="#444">77</text>
<line x1="90" y1="263.0" x2="850" y2="263.0" stroke="#dedede"/>
<text x="80" y="267.0" text-anchor="end" font-family="Arial, sans-serif" font-size="11" fill="#444">183</text>
<line x1="90" y1="157.5" x2="850" y2="157.5" stroke="#dedede"/>
<text x="80" y="161.5" text-anchor="end" font-family="Arial, sans-serif" font-size="11" fill="#444">289</text>
<line x1="90" y1="52.0" x2="850" y2="52.0" stroke="#dedede"/>
<text x="80" y="56.0" text-anchor="end" font-family="Arial, sans-serif" font-size="11" fill="#444">395</text>
<line x1="90.0" y1="52" x2="90.0" y2="474" stroke="#eeeeee"/>
<text x="90.0" y="512" text-anchor="middle" font-family="Arial, sans-serif" font-size="12" fill="#444">2021</text>
<line x1="145.3" y1="52" x2="145.3" y2="474" stroke="#eeeeee"/>
<text x="145.3" y="512" text-anchor="middle" font-family="Arial, sans-serif" font-size="12" fill="#444">2022</text>
<line x1="311.1" y1="52" x2="311.1" y2="474" stroke="#eeeeee"/>
<text x="311.1" y="512" text-anchor="middle" font-family="Arial, sans-serif" font-size="12" fill="#444">2023</text>
<line x1="476.9" y1="52" x2="476.9" y2="474" stroke="#eeeeee"/>
<text x="476.9" y="512" text-anchor="middle" font-family="Arial, sans-serif" font-size="12" fill="#444">2024</text>
<line x1="642.7" y1="52" x2="642.7" y2="474" stroke="#eeeeee"/>
<text x="642.7" y="512" text-anchor="middle" font-family="Arial, sans-serif" font-size="12" fill="#444">2025</text>
<line x1="808.5" y1="52" x2="808.5" y2="474" stroke="#eeeeee"/>
<text x="808.5" y="512" text-anchor="middle" font-family="Arial, sans-serif" font-size="12" fill="#444">2026</text>
<line x1="90" y1="345.4" x2="850" y2="345.4" stroke="#777" stroke-width="1.2" stroke-dasharray="2 5"/>
<text x="842" y="340.4" text-anchor="end" font-family="Arial, sans-serif" font-size="10" fill="#555">100</text>
<line x1="559.8" y1="52" x2="559.8" y2="474" stroke="#111" stroke-width="2.2"/>
<text x="566.8" y="68" font-family="Arial, sans-serif" font-size="11" fill="#111">Jul 2024</text>
<polyline fill="none" stroke="#b24a38" stroke-width="2.4" points="90.0,322.3 103.8,325.2 117.6,220.9 131.5,351.1 145.3,320.5 159.1,336.8 172.9,333.0 186.7,315.8 200.5,329.9 214.4,231.2 228.2,351.8 242.0,347.1 255.8,356.2 269.6,359.1 283.5,254.8 297.3,385.0 311.1,354.4 324.9,370.7 338.7,366.9 352.5,349.7 366.4,363.8 380.2,265.2 394.0,385.8 407.8,381.0 421.6,390.2 435.5,393.1 449.3,288.8 463.1,418.9 476.9,388.3 490.7,404.6 504.5,400.8 518.4,383.6 532.2,397.8 546.0,299.1 559.8,313.0 573.6,301.0 587.5,303.0 601.3,298.6 615.1,187.1 628.9,310.0 642.7,272.2 656.5,281.2 670.4,270.2 684.2,245.7 698.0,252.6 711.8,146.7 725.6,260.0 739.5,248.0 753.3,249.9 767.1,245.6 780.9,134.1 794.7,257.0 808.5,219.2 822.4,228.2 836.2,217.2 850.0,192.7"/>
<line x1="878" y1="60" x2="908" y2="60" stroke="#b24a38" stroke-width="2.4"/>
<text x="916" y="64" font-family="Arial, sans-serif" font-size="12" fill="#333">Fitted control</text>
<polyline fill="none" stroke="#24536b" stroke-width="2.4" points="90.0,402.0 103.8,337.0 117.6,332.3 131.5,388.0 145.3,348.9 159.1,383.0 172.9,331.0 186.7,378.0 200.5,352.7 214.4,355.2 228.2,387.9 242.0,398.2 255.8,381.6 269.6,316.6 283.5,311.9 297.3,367.6 311.1,328.5 324.9,362.6 338.7,310.6 352.5,357.6 366.4,332.3 380.2,334.8 394.0,367.4 407.8,377.8 421.6,361.2 435.5,296.2 449.3,291.5 463.1,347.2 476.9,308.1 490.7,342.2 504.5,290.1 518.4,337.2 532.2,311.9 546.0,314.4 559.8,377.1 573.6,377.6 587.5,351.0 601.3,276.1 615.1,261.5 628.9,307.3 642.7,258.3 656.5,282.5 670.4,220.5 684.2,257.6 698.0,222.4 711.8,215.0 725.6,237.7 739.5,238.2 753.3,211.6 767.1,136.7 780.9,122.1 794.7,167.9 808.5,118.9 822.4,143.1 836.2,81.1 850.0,118.3"/>
<line x1="878" y1="82" x2="908" y2="82" stroke="#24536b" stroke-width="2.4"/>
<text x="916" y="86" font-family="Arial, sans-serif" font-size="12" fill="#333">Fitted treatment</text>
<text x="20" y="263.0" transform="rotate(-90 20 263.0)" text-anchor="middle" font-family="Arial, sans-serif" font-size="12">Entry index (pre-transition monthly mean = 100)</text>
<text x="90" y="532" font-family="Arial, sans-serif" font-size="11" fill="#333">Vertical line marks the July 2024 breakpoint.</text>
</svg>
