<svg xmlns="http://www.w3.org/2000/svg" width="1080" height="540" viewBox="0 0 1080 540">
<rect width="100%" height="100%" fill="#ffffff"/>
<text x="540.0" y="28" text-anchor="middle" font-family="Arial, sans-serif" font-size="15" font-weight="700">New Comparative ITS: Treatment vs Strict Control - Segmented Trends</text>
<line x1="90" y1="474.0" x2="850" y2="474.0" stroke="#dedede"/>
<text x="80" y="478.0" text-anchor="end" font-family="Arial, sans-serif" font-size="11" fill="#444">-30</text>
<line x1="90" y1="368.5" x2="850" y2="368.5" stroke="#dedede"/>
<text x="80" y="372.5" text-anchor="end" font-family="Arial, sans-serif" font-size="11" fill="#444">79</text>
<line x1="90" y1="263.0" x2="850" y2="263.0" stroke="#dedede"/>
<text x="80" y="267.0" text-anchor="end" font-family="Arial, sans-serif" font-size="11" fill="#444">189</text>
<line x1="90" y1="157.5" x2="850" y2="157.5" stroke="#dedede"/>
<text x="80" y="161.5" text-anchor="end" font-family="Arial, sans-serif" font-size="11" fill="#444">299</text>
<line x1="90" y1="52.0" x2="850" y2="52.0" stroke="#dedede"/>
<text x="80" y="56.0" text-anchor="end" font-family="Arial, sans-serif" font-size="11" fill="#444">409</text>
<line x1="90.0" y1="52" x2="90.0" y2="474" stroke="#eeeeee"/>
<text x="90.0" y="512" text-anchor="middle" font-family="Arial, sans-serif" font-size="12" fill="#444">2019</text>
<line x1="194.8" y1="52" x2="194.8" y2="474" stroke="#eeeeee"/>
<text x="194.8" y="512" text-anchor="middle" font-family="Arial, sans-serif" font-size="12" fill="#444">2020</text>
<line x1="299.7" y1="52" x2="299.7" y2="474" stroke="#eeeeee"/>
<text x="299.7" y="512" text-anchor="middle" font-family="Arial, sans-serif" font-size="12" fill="#444">2021</text>
<line x1="404.5" y1="52" x2="404.5" y2="474" stroke="#eeeeee"/>
<text x="404.5" y="512" text-anchor="middle" font-family="Arial, sans-serif" font-size="12" fill="#444">2022</text>
<line x1="509.3" y1="52" x2="509.3" y2="474" stroke="#eeeeee"/>
<text x="509.3" y="512" text-anchor="middle" font-family="Arial, sans-serif" font-size="12" fill="#444">2023</text>
<line x1="614.1" y1="52" x2="614.1" y2="474" stroke="#eeeeee"/>
<text x="614.1" y="512" text-anchor="middle" font-family="Arial, sans-serif" font-size="12" fill="#444">2024</text>
<line x1="719.0" y1="52" x2="719.0" y2="474" stroke="#eeeeee"/>
<text x="719.0" y="512" text-anchor="middle" font-family="Arial, sans-serif" font-size="12" fill="#444">2025</text>
<line x1="823.8" y1="52" x2="823.8" y2="474" stroke="#eeeeee"/>
<text x="823.8" y="512" text-anchor="middle" font-family="Arial, sans-serif" font-size="12" fill="#444">2026</text>
<line x1="90" y1="348.7" x2="850" y2="348.7" stroke="#777" stroke-width="1.2" stroke-dasharray="2 5"/>
<text x="842" y="343.7" text-anchor="end" font-family="Arial, sans-serif" font-size="10" fill="#555">100</text>
<line x1="666.6" y1="52" x2="666.6" y2="474" stroke="#111" stroke-width="2.2"/>
<text x="673.6" y="68" font-family="Arial, sans-serif" font-size="11" fill="#111">Jul 2024</text>
<polyline fill="none" stroke="#b24a38" stroke-width="2.4" points="90.0,302.4 98.7,303.3 107.5,304.2 116.2,305.1 124.9,306.0 133.7,307.0 142.4,307.9 151.1,308.8 159.9,309.7 168.6,310.6 177.4,311.5 186.1,312.5 194.8,313.4 203.6,314.3 212.3,315.2 221.0,316.1 229.8,317.0 238.5,317.9 247.2,318.9 256.0,319.8 264.7,320.7 273.4,321.6 282.2,322.5 290.9,323.4 299.7,324.4 308.4,325.3 317.1,326.2 325.9,327.1 334.6,328.0 343.3,328.9 352.1,329.9 360.8,330.8 369.5,331.7 378.3,332.6 387.0,333.5 395.7,334.4 404.5,335.3 413.2,336.3 422.0,337.2 430.7,338.1 439.4,339.0 448.2,339.9 456.9,340.8 465.6,341.8 474.4,342.7 483.1,343.6 491.8,344.5 500.6,345.4 509.3,346.3 518.0,347.3 526.8,348.2 535.5,349.1 544.3,350.0 553.0,350.9 561.7,351.8 570.5,352.8 579.2,353.7 587.9,354.6 596.7,355.5 605.4,356.4 614.1,357.3 622.9,358.2 631.6,359.2 640.3,360.1 649.1,361.0 657.8,361.9 666.6,294.2 675.3,290.4 684.0,286.6 692.8,282.9 701.5,279.1 710.2,275.3 719.0,271.5 727.7,267.8 736.4,264.0 745.2,260.2 753.9,256.5 762.6,252.7 771.4,248.9 780.1,245.2 788.9,241.4 797.6,237.6 806.3,233.9 815.1,230.1 823.8,226.3 832.5,222.6 841.3,218.8 850.0,215.0"/>
<line x1="878" y1="60" x2="908" y2="60" stroke="#b24a38" stroke-width="2.4"/>
<text x="916" y="64" font-family="Arial, sans-serif" font-size="12" fill="#333">Fitted control</text>
<polyline fill="none" stroke="#24536b" stroke-width="2.4" points="90.0,342.3 98.7,341.9 107.5,341.6 116.2,341.2 124.9,340.8 133.7,340.5 142.4,340.1 151.1,339.8 159.9,339.4 168.6,339.0 177.4,338.7 186.1,338.3 194.8,338.0 203.6,337.6 212.3,337.2 221.0,336.9 229.8,336.5 238.5,336.2 247.2,335.8 256.0,335.4 264.7,335.1 273.4,334.7 282.2,334.4 290.9,334.0 299.7,333.6 308.4,333.3 317.1,332.9 325.9,332.6 334.6,332.2 343.3,331.8 352.1,331.5 360.8,331.1 369.5,330.8 378.3,330.4 387.0,330.1 395.7,329.7 404.5,329.3 413.2,329.0 422.0,328.6 430.7,328.3 439.4,327.9 448.2,327.5 456.9,327.2 465.6,326.8 474.4,326.5 483.1,326.1 491.8,325.7 500.6,325.4 509.3,325.0 518.0,324.7 526.8,324.3 535.5,323.9 544.3,323.6 553.0,323.2 561.7,322.9 570.5,322.5 579.2,322.1 587.9,321.8 596.7,321.4 605.4,321.1 614.1,320.7 622.9,320.3 631.6,320.0 640.3,319.6 649.1,319.3 657.8,318.9 666.6,329.1 675.3,317.3 684.0,305.5 692.8,293.7 701.5,281.9 710.2,270.0 719.0,258.2 727.7,246.4 736.4,234.6 745.2,222.8 753.9,211.0 762.6,199.2 771.4,187.4 780.1,175.6 788.9,163.8 797.6,152.0 806.3,140.1 815.1,128.3 823.8,116.5 832.5,104.7 841.3,92.9 850.0,81.1"/>
<line x1="878" y1="82" x2="908" y2="82" stroke="#24536b" stroke-width="2.4"/>
<text x="916" y="86" font-family="Arial, sans-serif" font-size="12" fill="#333">Fitted treatment</text>
<text x="20" y="263.0" transform="rotate(-90 20 263.0)" text-anchor="middle" font-family="Arial, sans-serif" font-size="12">Entry index (month fixed effects netted out)</text>
<text x="90" y="532" font-family="Arial, sans-serif" font-size="11" fill="#333">Vertical line marks the July 2024 breakpoint.</text>
</svg>
