<svg xmlns="http://www.w3.org/2000/svg" width="1060" height="520" viewBox="0 0 1060 520">
<rect width="100%" height="100%" fill="#ffffff"/>
<text x="530.0" y="28" text-anchor="middle" font-family="Arial, sans-serif" font-size="17" font-weight="700">Observed Versus Fitted Pre-Transition Expected Starts</text>
<rect x="832.4" y="50" width="90.8" height="408" fill="#d9e6ee" opacity="0.45"/>
<line x1="82" y1="458.0" x2="1026" y2="458.0" stroke="#dedede"/>
<text x="72" y="462.0" text-anchor="end" font-family="Arial, sans-serif" font-size="11" fill="#444">-17</text>
<line x1="82" y1="356.0" x2="1026" y2="356.0" stroke="#dedede"/>
<text x="72" y="360.0" text-anchor="end" font-family="Arial, sans-serif" font-size="11" fill="#444">44</text>
<line x1="82" y1="254.0" x2="1026" y2="254.0" stroke="#dedede"/>
<text x="72" y="258.0" text-anchor="end" font-family="Arial, sans-serif" font-size="11" fill="#444">104</text>
<line x1="82" y1="152.0" x2="1026" y2="152.0" stroke="#dedede"/>
<text x="72" y="156.0" text-anchor="end" font-family="Arial, sans-serif" font-size="11" fill="#444">164</text>
<line x1="82" y1="50.0" x2="1026" y2="50.0" stroke="#dedede"/>
<text x="72" y="54.0" text-anchor="end" font-family="Arial, sans-serif" font-size="11" fill="#444">225</text>
<line x1="82.0" y1="50" x2="82.0" y2="458" stroke="#eeeeee"/>
<text x="82.0" y="492" text-anchor="middle" font-family="Arial, sans-serif" font-size="12" fill="#444">2019</text>
<line x1="218.4" y1="50" x2="218.4" y2="458" stroke="#eeeeee"/>
<text x="218.4" y="492" text-anchor="middle" font-family="Arial, sans-serif" font-size="12" fill="#444">2020</text>
<line x1="355.2" y1="50" x2="355.2" y2="458" stroke="#eeeeee"/>
<text x="355.2" y="492" text-anchor="middle" font-family="Arial, sans-serif" font-size="12" fill="#444">2021</text>
<line x1="491.6" y1="50" x2="491.6" y2="458" stroke="#eeeeee"/>
<text x="491.6" y="492" text-anchor="middle" font-family="Arial, sans-serif" font-size="12" fill="#444">2022</text>
<line x1="628.0" y1="50" x2="628.0" y2="458" stroke="#eeeeee"/>
<text x="628.0" y="492" text-anchor="middle" font-family="Arial, sans-serif" font-size="12" fill="#444">2023</text>
<line x1="764.4" y1="50" x2="764.4" y2="458" stroke="#eeeeee"/>
<text x="764.4" y="492" text-anchor="middle" font-family="Arial, sans-serif" font-size="12" fill="#444">2024</text>
<line x1="901.2" y1="50" x2="901.2" y2="458" stroke="#eeeeee"/>
<text x="901.2" y="492" text-anchor="middle" font-family="Arial, sans-serif" font-size="12" fill="#444">2025</text>
<line x1="832.4" y1="50" x2="832.4" y2="458" stroke="#111" stroke-width="2.2"/>
<polygon points="82.0,322.6 93.6,335.0 104.0,291.9 115.6,332.2 126.8,337.0 138.4,342.6 149.6,334.2 161.2,339.6 172.8,328.1 184.0,340.6 195.6,319.0 206.8,356.2 218.4,317.5 230.0,329.9 240.8,286.7 252.4,327.0 263.6,331.8 275.2,337.5 286.4,328.6 298.0,334.0 309.6,322.6 320.8,335.1 332.4,313.4 343.6,350.6 355.2,311.6 366.8,324.0 377.2,280.9 388.8,321.2 400.0,326.0 411.6,331.6 422.8,322.3 434.4,327.7 446.0,316.2 457.2,328.8 468.8,307.1 480.0,344.3 491.6,304.9 503.2,317.3 513.6,274.2 525.2,314.5 536.4,319.3 548.0,324.9 559.2,315.3 570.8,320.7 582.4,309.2 593.6,321.7 605.2,300.0 616.4,337.2 628.0,297.4 639.6,309.8 650.0,266.7 661.6,307.0 672.8,311.8 684.4,317.4 695.6,307.5 707.2,312.9 718.8,301.4 730.0,313.9 741.6,292.2 752.8,329.4 764.4,289.2 776.0,301.6 786.8,258.4 798.4,298.7 809.6,303.5 821.2,309.2 832.4,299.0 844.0,304.4 855.6,292.9 866.8,305.4 878.4,283.8 889.6,321.0 901.2,280.3 912.8,292.7 923.2,249.6 934.8,289.9 946.0,294.7 957.6,300.3 968.8,290.0 980.4,295.5 992.0,284.0 1003.2,296.5 1014.8,274.8 1026.0,312.0 1026.0,373.8 1014.8,336.6 1003.2,358.2 992.0,345.7 980.4,357.2 968.8,351.8 957.6,355.9 946.0,350.3 934.8,345.5 923.2,305.2 912.8,348.3 901.2,335.9 889.6,378.2 878.4,341.0 866.8,362.6 855.6,350.1 844.0,361.6 832.4,356.2 821.2,360.4 809.6,354.8 798.4,350.0 786.8,309.7 776.0,352.8 764.4,340.4 752.8,383.1 741.6,345.9 730.0,367.6 718.8,355.1 707.2,366.6 695.6,361.1 684.4,365.6 672.8,359.9 661.6,355.1 650.0,314.8 639.6,357.9 628.0,345.5 616.4,388.7 605.2,351.5 593.6,373.1 582.4,360.6 570.8,372.1 559.2,366.7 548.0,371.4 536.4,365.8 525.2,361.0 513.6,320.7 503.2,363.8 491.6,351.4 480.0,395.0 468.8,357.8 457.2,379.5 446.0,366.9 434.4,378.4 422.8,373.0 411.6,378.1 400.0,372.5 388.8,367.7 377.2,327.4 366.8,370.5 355.2,358.1 343.6,402.1 332.4,364.9 320.8,386.5 309.6,374.0 298.0,385.5 286.4,380.1 275.2,385.6 263.6,380.0 252.4,375.2 240.8,334.9 230.0,378.0 218.4,365.6 206.8,409.9 195.6,372.7 184.0,394.3 172.8,381.8 161.2,393.3 149.6,387.9 138.4,393.9 126.8,388.2 115.6,383.4 104.0,343.1 93.6,386.3 82.0,373.9" fill="#b8c9d3" opacity="0.35"/>
<polyline fill="none" stroke="#24536b" stroke-width="2.4" points="82.0,362.2 93.6,362.2 104.0,341.9 115.6,370.7 126.8,328.4 138.4,374.1 149.6,345.3 161.2,384.2 172.8,377.4 184.0,357.1 195.6,341.9 206.8,380.8 218.4,340.2 230.0,350.4 240.8,276.0 252.4,343.6 263.6,369.0 275.2,313.2 286.4,340.2 298.0,347.0 309.6,352.1 320.8,380.8 332.4,362.2 343.6,421.4 355.2,282.7 366.8,335.2 377.2,298.0 388.8,362.2 400.0,362.2 411.6,355.5 422.8,387.6 434.4,396.0 446.0,374.1 457.2,352.1 468.8,358.8 480.0,370.7 491.6,369.0 503.2,325.0 513.6,292.9 525.2,330.1 536.4,318.3 548.0,352.1 559.2,340.2 570.8,306.4 582.4,270.9 593.6,370.7 605.2,304.7 616.4,308.1 628.0,331.8 639.6,347.0 650.0,306.4 661.6,331.8 672.8,323.3 684.4,301.3 695.6,325.0 707.2,331.8 718.8,333.5 730.0,309.8 741.6,294.6 752.8,367.3 764.4,303.0 776.0,343.6 786.8,289.5 798.4,308.1 809.6,374.1 821.2,413.0 832.4,424.8 844.0,429.9 855.6,428.2 866.8,78.1 878.4,166.1 889.6,250.6 901.2,260.8 912.8,243.9 923.2,243.9 934.8,123.8 946.0,216.8 957.6,159.3 968.8,106.9 980.4,232.0 992.0,150.9 1003.2,208.3 1014.8,144.1 1026.0,257.4"/>
<circle cx="82.0" cy="362.2" r="3" fill="#24536b"/>
<circle cx="93.6" cy="362.2" r="3" fill="#24536b"/>
<circle cx="104.0" cy="341.9" r="3" fill="#24536b"/>
<circle cx="115.6" cy="370.7" r="3" fill="#24536b"/>
<circle cx="126.8" cy="328.4" r="3" fill="#24536b"/>
<circle cx="138.4" cy="374.1" r="3" fill="#24536b"/>
<circle cx="149.6" cy="345.3" r="3" fill="#24536b"/>
<circle cx="161.2" cy="384.2" r="3" fill="#24536b"/>
<circle cx="172.8" cy="377.4" r="3" fill="#24536b"/>
<circle cx="184.0" cy="357.1" r="3" fill="#24536b"/>
<circle cx="195.6" cy="341.9" r="3" fill="#24536b"/>
<circle cx="206.8" cy="380.8" r="3" fill="#24536b"/>
<circle cx="218.4" cy="340.2" r="3" fill="#24536b"/>
<circle cx="230.0" cy="350.4" r="3" fill="#24536b"/>
<circle cx="240.8" cy="276.0" r="3" fill="#24536b"/>
<circle cx="252.4" cy="343.6" r="3" fill="#24536b"/>
<circle cx="263.6" cy="369.0" r="3" fill="#24536b"/>
<circle cx="275.2" cy="313.2" r="3" fill="#24536b"/>
<circle cx="286.4" cy="340.2" r="3" fill="#24536b"/>
<circle cx="298.0" cy="347.0" r="3" fill="#24536b"/>
<circle cx="309.6" cy="352.1" r="3" fill="#24536b"/>
<circle cx="320.8" cy="380.8" r="3" fill="#24536b"/>
<circle cx="332.4" cy="362.2" r="3" fill="#24536b"/>
<circle cx="343.6" cy="421.4" r="3" fill="#24536b"/>
<circle cx="355.2" cy="282.7" r="3" fill="#24536b"/>
<circle cx="366.8" cy="335.2" r="3" fill="#24536b"/>
<circle cx="377.2" cy="298.0" r="3" fill="#24536b"/>
<circle cx="388.8" cy="362.2" r="3" fill="#24536b"/>
<circle cx="400.0" cy="362.2" r="3" fill="#24536b"/>
<circle cx="411.6" cy="355.5" r="3" fill="#24536b"/>
<circle cx="422.8" cy="387.6" r="3" fill="#24536b"/>
<circle cx="434.4" cy="396.0" r="3" fill="#24536b"/>
<circle cx="446.0" cy="374.1" r="3" fill="#24536b"/>
<circle cx="457.2" cy="352.1" r="3" fill="#24536b"/>
<circle cx="468.8" cy="358.8" r="3" fill="#24536b"/>
<circle cx="480.0" cy="370.7" r="3" fill="#24536b"/>
<circle cx="491.6" cy="369.0" r="3" fill="#24536b"/>
<circle cx="503.2" cy="325.0" r="3" fill="#24536b"/>
<circle cx="513.6" cy="292.9" r="3" fill="#24536b"/>
<circle cx="525.2" cy="330.1" r="3" fill="#24536b"/>
<circle cx="536.4" cy="318.3" r="3" fill="#24536b"/>
<circle cx="548.0" cy="352.1" r="3" fill="#24536b"/>
<circle cx="559.2" cy="340.2" r="3" fill="#24536b"/>
<circle cx="570.8" cy="306.4" r="3" fill="#24536b"/>
<circle cx="582.4" cy="270.9" r="3" fill="#24536b"/>
<circle cx="593.6" cy="370.7" r="3" fill="#24536b"/>
<circle cx="605.2" cy="304.7" r="3" fill="#24536b"/>
<circle cx="616.4" cy="308.1" r="3" fill="#24536b"/>
<circle cx="628.0" cy="331.8" r="3" fill="#24536b"/>
<circle cx="639.6" cy="347.0" r="3" fill="#24536b"/>
<circle cx="650.0" cy="306.4" r="3" fill="#24536b"/>
<circle cx="661.6" cy="331.8" r="3" fill="#24536b"/>
<circle cx="672.8" cy="323.3" r="3" fill="#24536b"/>
<circle cx="684.4" cy="301.3" r="3" fill="#24536b"/>
<circle cx="695.6" cy="325.0" r="3" fill="#24536b"/>
<circle cx="707.2" cy="331.8" r="3" fill="#24536b"/>
<circle cx="718.8" cy="333.5" r="3" fill="#24536b"/>
<circle cx="730.0" cy="309.8" r="3" fill="#24536b"/>
<circle cx="741.6" cy="294.6" r="3" fill="#24536b"/>
<circle cx="752.8" cy="367.3" r="3" fill="#24536b"/>
<circle cx="764.4" cy="303.0" r="3" fill="#24536b"/>
<circle cx="776.0" cy="343.6" r="3" fill="#24536b"/>
<circle cx="786.8" cy="289.5" r="3" fill="#24536b"/>
<circle cx="798.4" cy="308.1" r="3" fill="#24536b"/>
<circle cx="809.6" cy="374.1" r="3" fill="#24536b"/>
<circle cx="821.2" cy="413.0" r="3" fill="#24536b"/>
<circle cx="832.4" cy="424.8" r="3" fill="#24536b"/>
<circle cx="844.0" cy="429.9" r="3" fill="#24536b"/>
<circle cx="855.6" cy="428.2" r="3" fill="#24536b"/>
<circle cx="866.8" cy="78.1" r="3" fill="#24536b"/>
<circle cx="878.4" cy="166.1" r="3" fill="#24536b"/>
<circle cx="889.6" cy="250.6" r="3" fill="#24536b"/>
<circle cx="901.2" cy="260.8" r="3" fill="#24536b"/>
<circle cx="912.8" cy="243.9" r="3" fill="#24536b"/>
<circle cx="923.2" cy="243.9" r="3" fill="#24536b"/>
<circle cx="934.8" cy="123.8" r="3" fill="#24536b"/>
<circle cx="946.0" cy="216.8" r="3" fill="#24536b"/>
<circle cx="957.6" cy="159.3" r="3" fill="#24536b"/>
<circle cx="968.8" cy="106.9" r="3" fill="#24536b"/>
<circle cx="980.4" cy="232.0" r="3" fill="#24536b"/>
<circle cx="992.0" cy="150.9" r="3" fill="#24536b"/>
<circle cx="1003.2" cy="208.3" r="3" fill="#24536b"/>
<circle cx="1014.8" cy="144.1" r="3" fill="#24536b"/>
<circle cx="1026.0" cy="257.4" r="3" fill="#24536b"/>
<polyline fill="none" stroke="#9a4d2f" stroke-width="2.4" stroke-dasharray="5 4" points="82.0,348.2 93.6,360.6 104.0,317.5 115.6,357.8 126.8,362.6 138.4,368.2 149.6,361.1 161.2,366.5 172.8,355.0 184.0,367.5 195.6,345.8 206.8,383.0 218.4,341.5 230.0,353.9 240.8,310.8 252.4,351.1 263.6,355.9 275.2,361.5 286.4,354.4 298.0,359.8 309.6,348.3 320.8,360.8 332.4,339.1 343.6,376.4 355.2,334.8 366.8,347.2 377.2,304.1 388.8,344.4 400.0,349.2 411.6,354.9 422.8,347.7 434.4,353.1 446.0,341.6 457.2,354.1 468.8,332.5 480.0,369.7 491.6,328.2 503.2,340.6 513.6,297.4 525.2,337.7 536.4,342.5 548.0,348.2 559.2,341.0 570.8,346.4 582.4,334.9 593.6,347.4 605.2,325.8 616.4,363.0 628.0,321.5 639.6,333.9 650.0,290.8 661.6,331.1 672.8,335.8 684.4,341.5 695.6,334.3 707.2,339.7 718.8,328.2 730.0,340.7 741.6,319.1 752.8,356.3 764.4,314.8 776.0,327.2 786.8,284.1 798.4,324.4 809.6,329.2 821.2,334.8 832.4,327.6 844.0,333.0 855.6,321.5 866.8,334.0 878.4,312.4 889.6,349.6 901.2,308.1 912.8,320.5 923.2,277.4 934.8,317.7 946.0,322.5 957.6,328.1 968.8,320.9 980.4,326.3 992.0,314.8 1003.2,327.4 1014.8,305.7 1026.0,342.9"/>
<circle cx="809.6" cy="374.1" r="7" fill="#fff" stroke="#b23a48" stroke-width="2"/>
<text x="809.6" y="362.1" text-anchor="middle" font-family="Arial, sans-serif" font-size="11" fill="#7a1f2b">Observed slowdown</text>
<circle cx="844.0" cy="429.9" r="7" fill="#fff" stroke="#b23a48" stroke-width="2"/>
<text x="844.0" y="417.9" text-anchor="middle" font-family="Arial, sans-serif" font-size="11" fill="#7a1f2b">Observed trough</text>
<circle cx="866.8" cy="78.1" r="7" fill="#fff" stroke="#b23a48" stroke-width="2"/>
<text x="866.8" y="66.1" text-anchor="middle" font-family="Arial, sans-serif" font-size="11" fill="#7a1f2b">Observed rebound</text>
<text x="18" y="254.0" transform="rotate(-90 18 254.0)" text-anchor="middle" font-family="Arial, sans-serif" font-size="12">Monthly starts</text>
<text x="82" y="512" font-family="Arial, sans-serif" font-size="11" fill="#333">Solid line: official July 2024 institutional breakpoint. Shading: documented transition/onboarding context.</text>
</svg>
