<svg xmlns="http://www.w3.org/2000/svg" width="980" height="420" viewBox="0 0 980 420" role="img" aria-labelledby="title desc">
<title>Monthly UKB project starts, 2023-2025</title>
<desc>Monthly counts for fixed matched project universe with July 5 2024 marked.</desc>
<rect width="100%" height="100%" fill="#ffffff"/>
<text x="68" y="22" font-family="Arial, sans-serif" font-size="16" font-weight="700" fill="#1f2937">Monthly project starts, 2023-2025</text>
<text x="68" y="40" font-family="Arial, sans-serif" font-size="11" fill="#4b5563">Fixed universe: 6,935 projects with unique recovered UKB Projects website start dates</text>
<line x1="68" y1="348.0" x2="948" y2="348.0" stroke="#e5e7eb" stroke-width="1"/>
<text x="58" y="352.0" text-anchor="end" font-family="Arial, sans-serif" font-size="10" fill="#6b7280">0</text>
<line x1="68" y1="285.2" x2="948" y2="285.2" stroke="#e5e7eb" stroke-width="1"/>
<text x="58" y="289.2" text-anchor="end" font-family="Arial, sans-serif" font-size="10" fill="#6b7280">42</text>
<line x1="68" y1="222.4" x2="948" y2="222.4" stroke="#e5e7eb" stroke-width="1"/>
<text x="58" y="226.4" text-anchor="end" font-family="Arial, sans-serif" font-size="10" fill="#6b7280">84</text>
<line x1="68" y1="159.6" x2="948" y2="159.6" stroke="#e5e7eb" stroke-width="1"/>
<text x="58" y="163.6" text-anchor="end" font-family="Arial, sans-serif" font-size="10" fill="#6b7280">126</text>
<line x1="68" y1="96.8" x2="948" y2="96.8" stroke="#e5e7eb" stroke-width="1"/>
<text x="58" y="100.8" text-anchor="end" font-family="Arial, sans-serif" font-size="10" fill="#6b7280">168</text>
<line x1="68" y1="34.0" x2="948" y2="34.0" stroke="#e5e7eb" stroke-width="1"/>
<text x="58" y="38.0" text-anchor="end" font-family="Arial, sans-serif" font-size="10" fill="#6b7280">210</text>
<rect x="68.0" y="261.3" width="20.6" height="86.7" fill="#2563eb"/>
<rect x="92.6" y="274.7" width="20.6" height="73.3" fill="#2563eb"/>
<rect x="117.1" y="238.8" width="20.6" height="109.2" fill="#2563eb"/>
<rect x="141.7" y="261.3" width="20.6" height="86.7" fill="#2563eb"/>
<rect x="166.2" y="253.8" width="20.6" height="94.2" fill="#2563eb"/>
<rect x="190.8" y="234.4" width="20.6" height="113.6" fill="#2563eb"/>
<rect x="215.3" y="255.3" width="20.6" height="92.7" fill="#2563eb"/>
<rect x="239.9" y="261.3" width="20.6" height="86.7" fill="#2563eb"/>
<rect x="264.4" y="262.8" width="20.6" height="85.2" fill="#2563eb"/>
<rect x="289.0" y="241.8" width="20.6" height="106.2" fill="#2563eb"/>
<rect x="313.6" y="228.4" width="20.6" height="119.6" fill="#2563eb"/>
<rect x="338.1" y="292.7" width="20.6" height="55.3" fill="#2563eb"/>
<rect x="362.7" y="235.9" width="20.6" height="112.1" fill="#2563eb"/>
<rect x="387.2" y="271.7" width="20.6" height="76.3" fill="#2563eb"/>
<rect x="411.8" y="223.9" width="20.6" height="124.1" fill="#2563eb"/>
<rect x="436.3" y="240.3" width="20.6" height="107.7" fill="#2563eb"/>
<rect x="460.9" y="298.7" width="20.6" height="49.3" fill="#2563eb"/>
<rect x="485.4" y="333.0" width="20.6" height="15.0" fill="#2563eb"/>
<rect x="510.0" y="343.5" width="20.6" height="4.5" fill="#2563eb"/>
<rect x="534.6" y="348.0" width="20.6" height="0.0" fill="#059669"/>
<rect x="559.1" y="346.5" width="20.6" height="1.5" fill="#059669"/>
<rect x="583.7" y="37.0" width="20.6" height="311.0" fill="#059669"/>
<rect x="608.2" y="114.7" width="20.6" height="233.3" fill="#059669"/>
<rect x="632.8" y="189.5" width="20.6" height="158.5" fill="#059669"/>
<rect x="657.3" y="198.5" width="20.6" height="149.5" fill="#059669"/>
<rect x="681.9" y="183.5" width="20.6" height="164.5" fill="#059669"/>
<rect x="706.4" y="183.5" width="20.6" height="164.5" fill="#059669"/>
<rect x="731.0" y="77.4" width="20.6" height="270.6" fill="#059669"/>
<rect x="755.6" y="159.6" width="20.6" height="188.4" fill="#059669"/>
<rect x="780.1" y="108.8" width="20.6" height="239.2" fill="#059669"/>
<rect x="804.7" y="62.4" width="20.6" height="285.6" fill="#059669"/>
<rect x="829.2" y="173.1" width="20.6" height="174.9" fill="#059669"/>
<rect x="853.8" y="101.3" width="20.6" height="246.7" fill="#059669"/>
<rect x="878.3" y="152.1" width="20.6" height="195.9" fill="#059669"/>
<rect x="902.9" y="95.3" width="20.6" height="252.7" fill="#059669"/>
<rect x="927.4" y="195.5" width="20.6" height="152.5" fill="#059669"/>
<line x1="510.8" y1="34" x2="510.8" y2="348" stroke="#dc2626" stroke-width="2"/>
<text x="516.8" y="48" font-family="Arial, sans-serif" font-size="11" fill="#b91c1c">5 July 2024</text>
<line x1="68" y1="348" x2="948" y2="348" stroke="#374151" stroke-width="1"/>
<line x1="68" y1="34" x2="68" y2="348" stroke="#374151" stroke-width="1"/>
<text x="78.3" y="376" text-anchor="end" transform="rotate(-45 78.3 376)" font-family="Arial, sans-serif" font-size="10" fill="#4b5563">2023-01</text>
<text x="151.9" y="376" text-anchor="end" transform="rotate(-45 151.9 376)" font-family="Arial, sans-serif" font-size="10" fill="#4b5563">2023-04</text>
<text x="225.6" y="376" text-anchor="end" transform="rotate(-45 225.6 376)" font-family="Arial, sans-serif" font-size="10" fill="#4b5563">2023-07</text>
<text x="299.3" y="376" text-anchor="end" transform="rotate(-45 299.3 376)" font-family="Arial, sans-serif" font-size="10" fill="#4b5563">2023-10</text>
<text x="372.9" y="376" text-anchor="end" transform="rotate(-45 372.9 376)" font-family="Arial, sans-serif" font-size="10" fill="#4b5563">2024-01</text>
<text x="446.6" y="376" text-anchor="end" transform="rotate(-45 446.6 376)" font-family="Arial, sans-serif" font-size="10" fill="#4b5563">2024-04</text>
<text x="520.3" y="376" text-anchor="end" transform="rotate(-45 520.3 376)" font-family="Arial, sans-serif" font-size="10" fill="#4b5563">2024-07</text>
<text x="593.9" y="376" text-anchor="end" transform="rotate(-45 593.9 376)" font-family="Arial, sans-serif" font-size="10" fill="#4b5563">2024-10</text>
<text x="667.6" y="376" text-anchor="end" transform="rotate(-45 667.6 376)" font-family="Arial, sans-serif" font-size="10" fill="#4b5563">2025-01</text>
<text x="741.3" y="376" text-anchor="end" transform="rotate(-45 741.3 376)" font-family="Arial, sans-serif" font-size="10" fill="#4b5563">2025-04</text>
<text x="814.9" y="376" text-anchor="end" transform="rotate(-45 814.9 376)" font-family="Arial, sans-serif" font-size="10" fill="#4b5563">2025-07</text>
<text x="888.6" y="376" text-anchor="end" transform="rotate(-45 888.6 376)" font-family="Arial, sans-serif" font-size="10" fill="#4b5563">2025-10</text>
<text x="508.0" y="408" text-anchor="middle" font-family="Arial, sans-serif" font-size="11" fill="#374151">Project start month</text>
<text x="16" y="191.0" text-anchor="middle" transform="rotate(-90 16 191.0)" font-family="Arial, sans-serif" font-size="11" fill="#374151">New projects</text>
</svg>
