<svg xmlns="http://www.w3.org/2000/svg" width="1080" height="760" viewBox="0 0 1080 760">
<rect width="100%" height="100%" fill="#ffffff"/>
<text x="82" y="31" font-family="Arial, sans-serif" font-size="18" font-weight="700" fill="#222">Strict control only ITS and Pre-Period Placebo Slopes</text>
<text x="82" y="52" font-family="Arial, sans-serif" font-size="11" fill="#555">Raw monthly project starts; month-of-year FE; Newey-West HAC lag 3</text>
<text x="82" y="78" font-family="Arial, sans-serif" font-size="13" font-weight="700" fill="#333">Actual July 2024 ITS</text>
<line x1="82" y1="380.0" x2="1020" y2="380.0" stroke="#E2E2E2"/>
<text x="72" y="384.0" text-anchor="end" font-family="Arial, sans-serif" font-size="10" fill="#555">-1</text>
<line x1="82" y1="307.5" x2="1020" y2="307.5" stroke="#E2E2E2"/>
<text x="72" y="311.5" text-anchor="end" font-family="Arial, sans-serif" font-size="10" fill="#555">2</text>
<line x1="82" y1="235.0" x2="1020" y2="235.0" stroke="#E2E2E2"/>
<text x="72" y="239.0" text-anchor="end" font-family="Arial, sans-serif" font-size="10" fill="#555">6</text>
<line x1="82" y1="162.5" x2="1020" y2="162.5" stroke="#E2E2E2"/>
<text x="72" y="166.5" text-anchor="end" font-family="Arial, sans-serif" font-size="10" fill="#555">10</text>
<line x1="82" y1="90.0" x2="1020" y2="90.0" stroke="#E2E2E2"/>
<text x="72" y="94.0" text-anchor="end" font-family="Arial, sans-serif" font-size="10" fill="#555">13</text>
<line x1="134.1" y1="90" x2="134.1" y2="380" stroke="#F0F0F0"/>
<text x="134.1" y="401" text-anchor="middle" font-family="Arial, sans-serif" font-size="10" fill="#555">2022</text>
<line x1="342.6" y1="90" x2="342.6" y2="380" stroke="#F0F0F0"/>
<text x="342.6" y="401" text-anchor="middle" font-family="Arial, sans-serif" font-size="10" fill="#555">2023</text>
<line x1="551.0" y1="90" x2="551.0" y2="380" stroke="#F0F0F0"/>
<text x="551.0" y="401" text-anchor="middle" font-family="Arial, sans-serif" font-size="10" fill="#555">2024</text>
<line x1="759.4" y1="90" x2="759.4" y2="380" stroke="#F0F0F0"/>
<text x="759.4" y="401" text-anchor="middle" font-family="Arial, sans-serif" font-size="10" fill="#555">2025</text>
<line x1="967.9" y1="90" x2="967.9" y2="380" stroke="#F0F0F0"/>
<text x="967.9" y="401" text-anchor="middle" font-family="Arial, sans-serif" font-size="10" fill="#555">2026</text>
<line x1="655.2" y1="90" x2="655.2" y2="380" stroke="#111" stroke-width="1.6" stroke-dasharray="6 4"/>
<text x="661.2" y="105" font-family="Arial, sans-serif" font-size="10" fill="#111">Jul 2024</text>
<polyline points="82.0,297.1 99.4,255.7 116.7,317.9 134.1,297.1 151.5,297.1 168.9,214.3 186.2,214.3 203.6,297.1 221.0,214.3 238.3,276.4 255.7,214.3 273.1,276.4 290.4,359.3 307.8,297.1 325.2,297.1 342.6,317.9 359.9,317.9 377.3,359.3 394.7,317.9 412.0,297.1 429.4,193.6 446.8,297.1 464.1,338.6 481.5,255.7 498.9,338.6 516.3,276.4 533.6,359.3 551.0,359.3 568.4,338.6 585.7,338.6 603.1,297.1 620.5,297.1 637.9,338.6 655.2,359.3 672.6,359.3 690.0,359.3 707.3,214.3 724.7,110.7 742.1,193.6 759.4,255.7 776.8,193.6 794.2,255.7 811.6,235.0 828.9,276.4 846.3,172.9 863.7,214.3 881.0,214.3 898.4,172.9 915.8,214.3 933.1,152.1 950.5,317.9 967.9,152.1 985.3,276.4 1002.6,235.0 1020.0,276.4" fill="none" stroke="#24536B" stroke-width="1.6"/>
<circle cx="82.0" cy="297.1" r="2.2" fill="#24536B"/>
<circle cx="99.4" cy="255.7" r="2.2" fill="#24536B"/>
<circle cx="116.7" cy="317.9" r="2.2" fill="#24536B"/>
<circle cx="134.1" cy="297.1" r="2.2" fill="#24536B"/>
<circle cx="151.5" cy="297.1" r="2.2" fill="#24536B"/>
<circle cx="168.9" cy="214.3" r="2.2" fill="#24536B"/>
<circle cx="186.2" cy="214.3" r="2.2" fill="#24536B"/>
<circle cx="203.6" cy="297.1" r="2.2" fill="#24536B"/>
<circle cx="221.0" cy="214.3" r="2.2" fill="#24536B"/>
<circle cx="238.3" cy="276.4" r="2.2" fill="#24536B"/>
<circle cx="255.7" cy="214.3" r="2.2" fill="#24536B"/>
<circle cx="273.1" cy="276.4" r="2.2" fill="#24536B"/>
<circle cx="290.4" cy="359.3" r="2.2" fill="#24536B"/>
<circle cx="307.8" cy="297.1" r="2.2" fill="#24536B"/>
<circle cx="325.2" cy="297.1" r="2.2" fill="#24536B"/>
<circle cx="342.6" cy="317.9" r="2.2" fill="#24536B"/>
<circle cx="359.9" cy="317.9" r="2.2" fill="#24536B"/>
<circle cx="377.3" cy="359.3" r="2.2" fill="#24536B"/>
<circle cx="394.7" cy="317.9" r="2.2" fill="#24536B"/>
<circle cx="412.0" cy="297.1" r="2.2" fill="#24536B"/>
<circle cx="429.4" cy="193.6" r="2.2" fill="#24536B"/>
<circle cx="446.8" cy="297.1" r="2.2" fill="#24536B"/>
<circle cx="464.1" cy="338.6" r="2.2" fill="#24536B"/>
<circle cx="481.5" cy="255.7" r="2.2" fill="#24536B"/>
<circle cx="498.9" cy="338.6" r="2.2" fill="#24536B"/>
<circle cx="516.3" cy="276.4" r="2.2" fill="#24536B"/>
<circle cx="533.6" cy="359.3" r="2.2" fill="#24536B"/>
<circle cx="551.0" cy="359.3" r="2.2" fill="#24536B"/>
<circle cx="568.4" cy="338.6" r="2.2" fill="#24536B"/>
<circle cx="585.7" cy="338.6" r="2.2" fill="#24536B"/>
<circle cx="603.1" cy="297.1" r="2.2" fill="#24536B"/>
<circle cx="620.5" cy="297.1" r="2.2" fill="#24536B"/>
<circle cx="637.9" cy="338.6" r="2.2" fill="#24536B"/>
<circle cx="655.2" cy="359.3" r="2.2" fill="#24536B"/>
<circle cx="672.6" cy="359.3" r="2.2" fill="#24536B"/>
<circle cx="690.0" cy="359.3" r="2.2" fill="#24536B"/>
<circle cx="707.3" cy="214.3" r="2.2" fill="#24536B"/>
<circle cx="724.7" cy="110.7" r="2.2" fill="#24536B"/>
<circle cx="742.1" cy="193.6" r="2.2" fill="#24536B"/>
<circle cx="759.4" cy="255.7" r="2.2" fill="#24536B"/>
<circle cx="776.8" cy="193.6" r="2.2" fill="#24536B"/>
<circle cx="794.2" cy="255.7" r="2.2" fill="#24536B"/>
<circle cx="811.6" cy="235.0" r="2.2" fill="#24536B"/>
<circle cx="828.9" cy="276.4" r="2.2" fill="#24536B"/>
<circle cx="846.3" cy="172.9" r="2.2" fill="#24536B"/>
<circle cx="863.7" cy="214.3" r="2.2" fill="#24536B"/>
<circle cx="881.0" cy="214.3" r="2.2" fill="#24536B"/>
<circle cx="898.4" cy="172.9" r="2.2" fill="#24536B"/>
<circle cx="915.8" cy="214.3" r="2.2" fill="#24536B"/>
<circle cx="933.1" cy="152.1" r="2.2" fill="#24536B"/>
<circle cx="950.5" cy="317.9" r="2.2" fill="#24536B"/>
<circle cx="967.9" cy="152.1" r="2.2" fill="#24536B"/>
<circle cx="985.3" cy="276.4" r="2.2" fill="#24536B"/>
<circle cx="1002.6" cy="235.0" r="2.2" fill="#24536B"/>
<circle cx="1020.0" cy="276.4" r="2.2" fill="#24536B"/>
<polyline points="82.0,277.8 99.4,213.5 116.7,294.3 134.1,275.6 151.5,285.9 168.9,283.8 186.2,273.4 203.6,282.3 221.0,221.4 238.3,297.1 255.7,294.4 273.1,281.4 290.4,304.3 307.8,240.0 325.2,320.8 342.6,302.1 359.9,312.4 377.3,310.3 394.7,299.8 412.0,308.8 429.4,247.9 446.8,323.6 464.1,320.9 481.5,307.9 498.9,330.8 516.3,266.5 533.6,347.3 551.0,328.6 568.4,338.9 585.7,336.7 603.1,326.3 620.5,335.3 637.9,274.4 655.2,280.3 672.6,272.6 690.0,254.5 707.3,272.4 724.7,203.1 742.1,278.8 759.4,255.0 776.8,260.3 794.2,253.1 811.6,237.6 828.9,241.5 846.3,175.6 863.7,246.2 881.0,238.5 898.4,220.4 915.8,238.3 933.1,169.0 950.5,244.6 967.9,220.9 985.3,226.2 1002.6,219.0 1020.0,203.5" fill="none" stroke="#2F6F48" stroke-width="2.2"/>
<line x1="835" y1="98" x2="865" y2="98" stroke="#24536B" stroke-width="2"/>
<text x="873" y="102" font-family="Arial, sans-serif" font-size="10" fill="#333">Observed</text>
<line x1="935" y1="98" x2="965" y2="98" stroke="#2F6F48" stroke-width="2.2"/>
<text x="973" y="102" font-family="Arial, sans-serif" font-size="10" fill="#333">Fitted</text>
<text x="20" y="235.0" transform="rotate(-90 20 235.0)" text-anchor="middle" font-family="Arial, sans-serif" font-size="11" fill="#333">Monthly project starts</text>
<text x="82" y="457" font-family="Arial, sans-serif" font-size="13" font-weight="700" fill="#333">Artificial slope changes using only Oct 2021-Jun 2024</text>
<line x1="82" y1="680.0" x2="1020" y2="680.0" stroke="#E2E2E2"/>
<text x="72" y="684.0" text-anchor="end" font-family="Arial, sans-serif" font-size="10" fill="#555">-0.39</text>
<line x1="82" y1="577.5" x2="1020" y2="577.5" stroke="#E2E2E2"/>
<text x="72" y="581.5" text-anchor="end" font-family="Arial, sans-serif" font-size="10" fill="#555">-0.04</text>
<line x1="82" y1="475.0" x2="1020" y2="475.0" stroke="#E2E2E2"/>
<text x="72" y="479.0" text-anchor="end" font-family="Arial, sans-serif" font-size="10" fill="#555">0.31</text>
<line x1="82" y1="565.7" x2="1020" y2="565.7" stroke="#666" stroke-width="1.1"/>
<line x1="82" y1="494.8" x2="1020" y2="494.8" stroke="#2F6F48" stroke-width="1.7" stroke-dasharray="7 5"/>
<text x="1016" y="488.8" text-anchor="end" font-family="Arial, sans-serif" font-size="10" fill="#2F6F48">Actual Jul 2024 slope change = 0.244</text>
<line x1="82.0" y1="634.6" x2="82.0" y2="533.0" stroke="#24536B" stroke-width="1.4"/>
<line x1="78.0" y1="634.6" x2="86.0" y2="634.6" stroke="#24536B"/>
<line x1="78.0" y1="533.0" x2="86.0" y2="533.0" stroke="#24536B"/>
<circle cx="82.0" cy="583.8" r="4" fill="#24536B"/>
<text x="82.0" y="701" text-anchor="middle" font-family="Arial, sans-serif" font-size="9" fill="#555">2022-10</text>
<line x1="186.2" y1="606.2" x2="186.2" y2="508.4" stroke="#24536B" stroke-width="1.4"/>
<line x1="182.2" y1="606.2" x2="190.2" y2="606.2" stroke="#24536B"/>
<line x1="182.2" y1="508.4" x2="190.2" y2="508.4" stroke="#24536B"/>
<circle cx="186.2" cy="557.3" r="4" fill="#24536B"/>
<text x="186.2" y="701" text-anchor="middle" font-family="Arial, sans-serif" font-size="9" fill="#555">2022-11</text>
<line x1="290.4" y1="599.2" x2="290.4" y2="505.7" stroke="#24536B" stroke-width="1.4"/>
<line x1="286.4" y1="599.2" x2="294.4" y2="599.2" stroke="#24536B"/>
<line x1="286.4" y1="505.7" x2="294.4" y2="505.7" stroke="#24536B"/>
<circle cx="290.4" cy="552.5" r="4" fill="#24536B"/>
<text x="290.4" y="701" text-anchor="middle" font-family="Arial, sans-serif" font-size="9" fill="#555">2022-12</text>
<line x1="394.7" y1="604.7" x2="394.7" y2="513.8" stroke="#24536B" stroke-width="1.4"/>
<line x1="390.7" y1="604.7" x2="398.7" y2="604.7" stroke="#24536B"/>
<line x1="390.7" y1="513.8" x2="398.7" y2="513.8" stroke="#24536B"/>
<circle cx="394.7" cy="559.2" r="4" fill="#24536B"/>
<text x="394.7" y="701" text-anchor="middle" font-family="Arial, sans-serif" font-size="9" fill="#555">2023-01</text>
<line x1="498.9" y1="604.0" x2="498.9" y2="510.1" stroke="#24536B" stroke-width="1.4"/>
<line x1="494.9" y1="604.0" x2="502.9" y2="604.0" stroke="#24536B"/>
<line x1="494.9" y1="510.1" x2="502.9" y2="510.1" stroke="#24536B"/>
<circle cx="498.9" cy="557.0" r="4" fill="#24536B"/>
<text x="498.9" y="701" text-anchor="middle" font-family="Arial, sans-serif" font-size="9" fill="#555">2023-02</text>
<line x1="603.1" y1="608.3" x2="603.1" y2="498.2" stroke="#24536B" stroke-width="1.4"/>
<line x1="599.1" y1="608.3" x2="607.1" y2="608.3" stroke="#24536B"/>
<line x1="599.1" y1="498.2" x2="607.1" y2="498.2" stroke="#24536B"/>
<circle cx="603.1" cy="553.2" r="4" fill="#24536B"/>
<text x="603.1" y="701" text-anchor="middle" font-family="Arial, sans-serif" font-size="9" fill="#555">2023-03</text>
<line x1="707.3" y1="616.4" x2="707.3" y2="501.8" stroke="#24536B" stroke-width="1.4"/>
<line x1="703.3" y1="616.4" x2="711.3" y2="616.4" stroke="#24536B"/>
<line x1="703.3" y1="501.8" x2="711.3" y2="501.8" stroke="#24536B"/>
<circle cx="707.3" cy="559.1" r="4" fill="#24536B"/>
<text x="707.3" y="701" text-anchor="middle" font-family="Arial, sans-serif" font-size="9" fill="#555">2023-04</text>
<line x1="811.6" y1="627.7" x2="811.6" y2="529.7" stroke="#24536B" stroke-width="1.4"/>
<line x1="807.6" y1="627.7" x2="815.6" y2="627.7" stroke="#24536B"/>
<line x1="807.6" y1="529.7" x2="815.6" y2="529.7" stroke="#24536B"/>
<circle cx="811.6" cy="578.7" r="4" fill="#24536B"/>
<text x="811.6" y="701" text-anchor="middle" font-family="Arial, sans-serif" font-size="9" fill="#555">2023-05</text>
<line x1="915.8" y1="653.2" x2="915.8" y2="548.6" stroke="#24536B" stroke-width="1.4"/>
<line x1="911.8" y1="653.2" x2="919.8" y2="653.2" stroke="#24536B"/>
<line x1="911.8" y1="548.6" x2="919.8" y2="548.6" stroke="#24536B"/>
<circle cx="915.8" cy="600.9" r="4" fill="#24536B"/>
<text x="915.8" y="701" text-anchor="middle" font-family="Arial, sans-serif" font-size="9" fill="#555">2023-06</text>
<line x1="1020.0" y1="660.2" x2="1020.0" y2="520.5" stroke="#24536B" stroke-width="1.4"/>
<line x1="1016.0" y1="660.2" x2="1024.0" y2="660.2" stroke="#24536B"/>
<line x1="1016.0" y1="520.5" x2="1024.0" y2="520.5" stroke="#24536B"/>
<circle cx="1020.0" cy="590.3" r="4" fill="#24536B"/>
<text x="1020.0" y="701" text-anchor="middle" font-family="Arial, sans-serif" font-size="9" fill="#555">2023-07</text>
<text x="20" y="577.5" transform="rotate(-90 20 577.5)" text-anchor="middle" font-family="Arial, sans-serif" font-size="11" fill="#333">Slope change</text>
<text x="82" y="747" font-family="Arial, sans-serif" font-size="10" fill="#555">Points show artificial slope changes; bars are 95% HAC confidence intervals. The green dashed line is the full-window actual July 2024 estimate.</text>
</svg>
